%TF.GenerationSoftware,KiCad,Pcbnew,(6.0.4)*%
%TF.CreationDate,2022-04-20T16:37:51+09:00*%
%TF.ProjectId,KiCad,4b694361-642e-46b6-9963-61645f706362,rev?*%
%TF.SameCoordinates,Original*%
%TF.FileFunction,Soldermask,Bot*%
%TF.FilePolarity,Negative*%
%FSLAX46Y46*%
G04 Gerber Fmt 4.6, Leading zero omitted, Abs format (unit mm)*
G04 Created by KiCad (PCBNEW (6.0.4)) date 2022-04-20 16:37:51*
%MOMM*%
%LPD*%
G01*
G04 APERTURE LIST*
G04 Aperture macros list*
%AMRoundRect*
0 Rectangle with rounded corners*
0 $1 Rounding radius*
0 $2 $3 $4 $5 $6 $7 $8 $9 X,Y pos of 4 corners*
0 Add a 4 corners polygon primitive as box body*
4,1,4,$2,$3,$4,$5,$6,$7,$8,$9,$2,$3,0*
0 Add four circle primitives for the rounded corners*
1,1,$1+$1,$2,$3*
1,1,$1+$1,$4,$5*
1,1,$1+$1,$6,$7*
1,1,$1+$1,$8,$9*
0 Add four rect primitives between the rounded corners*
20,1,$1+$1,$2,$3,$4,$5,0*
20,1,$1+$1,$4,$5,$6,$7,0*
20,1,$1+$1,$6,$7,$8,$9,0*
20,1,$1+$1,$8,$9,$2,$3,0*%
G04 Aperture macros list end*
%ADD10R,1.600000X1.600000*%
%ADD11C,1.600000*%
%ADD12O,1.600000X1.600000*%
%ADD13C,2.400000*%
%ADD14O,2.400000X2.400000*%
%ADD15R,2.000000X2.000000*%
%ADD16C,2.000000*%
%ADD17R,1.300000X1.300000*%
%ADD18C,1.300000*%
%ADD19R,2.200000X2.200000*%
%ADD20O,2.200000X2.200000*%
%ADD21C,1.200000*%
%ADD22C,3.285000*%
%ADD23R,1.440000X2.000000*%
%ADD24O,1.440000X2.000000*%
%ADD25R,3.000000X3.600000*%
%ADD26RoundRect,0.750000X0.750000X1.000000X-0.750000X1.000000X-0.750000X-1.000000X0.750000X-1.000000X0*%
%ADD27RoundRect,0.875000X0.875000X0.875000X-0.875000X0.875000X-0.875000X-0.875000X0.875000X-0.875000X0*%
%ADD28C,2.600000*%
%ADD29R,1.500000X1.500000*%
%ADD30O,1.500000X1.500000*%
%ADD31R,1.700000X1.700000*%
%ADD32O,1.700000X1.700000*%
G04 APERTURE END LIST*
D10*
%TO.C,C2*%
X180000000Y-62955113D03*
D11*
X180000000Y-60955113D03*
%TD*%
%TO.C,R7*%
X165390000Y-116000000D03*
D12*
X173010000Y-116000000D03*
%TD*%
D13*
%TO.C,R1*%
X173620000Y-62000000D03*
D14*
X158380000Y-62000000D03*
%TD*%
D15*
%TO.C,C4*%
X180000000Y-81367677D03*
D16*
X180000000Y-76367677D03*
%TD*%
D17*
%TO.C,Q2*%
X160000000Y-105360000D03*
D18*
X161270000Y-104090000D03*
X162540000Y-105360000D03*
%TD*%
D11*
%TO.C,C5*%
X141000000Y-64500000D03*
X141000000Y-69500000D03*
%TD*%
%TO.C,R6*%
X173000000Y-111000000D03*
D12*
X165380000Y-111000000D03*
%TD*%
D11*
%TO.C,C3*%
X182500000Y-87000000D03*
X177500000Y-87000000D03*
%TD*%
D16*
%TO.C,TP3*%
X169000000Y-92000000D03*
%TD*%
D17*
%TO.C,Q1*%
X168000000Y-105360000D03*
D18*
X169270000Y-104090000D03*
X170540000Y-105360000D03*
%TD*%
D11*
%TO.C,R8*%
X153190000Y-111000000D03*
D12*
X160810000Y-111000000D03*
%TD*%
D11*
%TO.C,R3*%
X136906000Y-61334000D03*
D12*
X129286000Y-61334000D03*
%TD*%
D19*
%TO.C,D1*%
X154080000Y-75000000D03*
D20*
X143920000Y-75000000D03*
%TD*%
D11*
%TO.C,R5*%
X136906000Y-68834000D03*
D12*
X129286000Y-68834000D03*
%TD*%
D21*
%TO.C,SW1*%
X133000000Y-107010200D03*
X131000000Y-107010200D03*
X129000000Y-107010200D03*
X127000000Y-107010200D03*
X125000000Y-107010200D03*
X123000000Y-107010200D03*
X123000000Y-109510200D03*
X125000000Y-109510200D03*
X127000000Y-109510200D03*
X129000000Y-109510200D03*
X131000000Y-109510200D03*
X133000000Y-109510200D03*
D22*
X135555000Y-108260200D03*
X120445000Y-108260200D03*
%TD*%
D11*
%TO.C,R10*%
X156000000Y-98190000D03*
D12*
X156000000Y-105810000D03*
%TD*%
D13*
%TO.C,R2*%
X173620000Y-69000000D03*
D14*
X158380000Y-69000000D03*
%TD*%
D16*
%TO.C,TP1*%
X177000000Y-92000000D03*
%TD*%
D23*
%TO.C,J3*%
X117000000Y-97000000D03*
D24*
X119540000Y-97000000D03*
X122080000Y-97000000D03*
X124620000Y-97000000D03*
X127160000Y-97000000D03*
X129700000Y-97000000D03*
X132240000Y-97000000D03*
X134780000Y-97000000D03*
X137320000Y-97000000D03*
X139860000Y-97000000D03*
X142400000Y-97000000D03*
X144940000Y-97000000D03*
X144940000Y-81760000D03*
X142400000Y-81760000D03*
X139860000Y-81760000D03*
X137320000Y-81760000D03*
X134780000Y-81760000D03*
X132240000Y-81760000D03*
X129700000Y-81760000D03*
X127160000Y-81760000D03*
X124620000Y-81760000D03*
X122080000Y-81760000D03*
X119540000Y-81760000D03*
X117000000Y-81760000D03*
%TD*%
D11*
%TO.C,R4*%
X129223500Y-65126500D03*
D12*
X136843500Y-65126500D03*
%TD*%
D11*
%TO.C,R9*%
X153190000Y-116000000D03*
D12*
X160810000Y-116000000D03*
%TD*%
D25*
%TO.C,J1*%
X186187500Y-65457500D03*
D26*
X192187500Y-65457500D03*
D27*
X188987500Y-60757500D03*
%TD*%
D11*
%TO.C,C1*%
X155422600Y-66867400D03*
X155422600Y-71867400D03*
%TD*%
D16*
%TO.C,TP2*%
X177000000Y-104000000D03*
%TD*%
D28*
%TO.C,L1*%
X169000000Y-79000000D03*
X164000000Y-79000000D03*
%TD*%
D29*
%TO.C,D2*%
X141685000Y-111000000D03*
D30*
X149305000Y-111000000D03*
%TD*%
D10*
%TO.C,J2*%
X120772000Y-102250400D03*
D12*
X123312000Y-102250400D03*
X125852000Y-102250400D03*
X128392000Y-102250400D03*
X130932000Y-102250400D03*
X133472000Y-102250400D03*
X136012000Y-102250400D03*
X138552000Y-102250400D03*
X141092000Y-102250400D03*
X143632000Y-102250400D03*
X146172000Y-102250400D03*
X148712000Y-102250400D03*
X148712000Y-94630400D03*
X146172000Y-94630400D03*
X143632000Y-94630400D03*
X141092000Y-94630400D03*
X138552000Y-94630400D03*
X136012000Y-94630400D03*
X133472000Y-94630400D03*
X130932000Y-94630400D03*
X128392000Y-94630400D03*
X125852000Y-94630400D03*
X123312000Y-94630400D03*
X120772000Y-94630400D03*
%TD*%
D31*
%TO.C,JP1*%
X122533500Y-65834000D03*
D32*
X122533500Y-68374000D03*
%TD*%
D10*
%TO.C,U1*%
X145200000Y-61700000D03*
D12*
X145200000Y-64240000D03*
X145200000Y-66780000D03*
X145200000Y-69320000D03*
X152820000Y-69320000D03*
X152820000Y-66780000D03*
X152820000Y-64240000D03*
X152820000Y-61700000D03*
%TD*%
D19*
%TO.C,D3*%
X150580000Y-106000000D03*
D20*
X140420000Y-106000000D03*
%TD*%
M02*
