%TF.GenerationSoftware,KiCad,Pcbnew,(6.0.4)*%
%TF.CreationDate,2022-04-20T16:37:51+09:00*%
%TF.ProjectId,KiCad,4b694361-642e-46b6-9963-61645f706362,rev?*%
%TF.SameCoordinates,Original*%
%TF.FileFunction,Legend,Bot*%
%TF.FilePolarity,Positive*%
%FSLAX46Y46*%
G04 Gerber Fmt 4.6, Leading zero omitted, Abs format (unit mm)*
G04 Created by KiCad (PCBNEW (6.0.4)) date 2022-04-20 16:37:51*
%MOMM*%
%LPD*%
G01*
G04 APERTURE LIST*
%ADD10C,0.300000*%
G04 APERTURE END LIST*
D10*
X155758028Y-80934800D02*
X155686600Y-81006228D01*
X155615171Y-81149085D01*
X155615171Y-81506228D01*
X155686600Y-81649085D01*
X155758028Y-81720514D01*
X155900885Y-81791942D01*
X156043742Y-81791942D01*
X156258028Y-81720514D01*
X157115171Y-80863371D01*
X157115171Y-81791942D01*
X155615171Y-82720514D02*
X155615171Y-82863371D01*
X155686600Y-83006228D01*
X155758028Y-83077657D01*
X155900885Y-83149085D01*
X156186600Y-83220514D01*
X156543742Y-83220514D01*
X156829457Y-83149085D01*
X156972314Y-83077657D01*
X157043742Y-83006228D01*
X157115171Y-82863371D01*
X157115171Y-82720514D01*
X157043742Y-82577657D01*
X156972314Y-82506228D01*
X156829457Y-82434800D01*
X156543742Y-82363371D01*
X156186600Y-82363371D01*
X155900885Y-82434800D01*
X155758028Y-82506228D01*
X155686600Y-82577657D01*
X155615171Y-82720514D01*
X155758028Y-83791942D02*
X155686600Y-83863371D01*
X155615171Y-84006228D01*
X155615171Y-84363371D01*
X155686600Y-84506228D01*
X155758028Y-84577657D01*
X155900885Y-84649085D01*
X156043742Y-84649085D01*
X156258028Y-84577657D01*
X157115171Y-83720514D01*
X157115171Y-84649085D01*
X155758028Y-85220514D02*
X155686600Y-85291942D01*
X155615171Y-85434800D01*
X155615171Y-85791942D01*
X155686600Y-85934800D01*
X155758028Y-86006228D01*
X155900885Y-86077657D01*
X156043742Y-86077657D01*
X156258028Y-86006228D01*
X157115171Y-85149085D01*
X157115171Y-86077657D01*
X155543742Y-87791942D02*
X157472314Y-86506228D01*
X155615171Y-88577657D02*
X155615171Y-88720514D01*
X155686600Y-88863371D01*
X155758028Y-88934800D01*
X155900885Y-89006228D01*
X156186600Y-89077657D01*
X156543742Y-89077657D01*
X156829457Y-89006228D01*
X156972314Y-88934800D01*
X157043742Y-88863371D01*
X157115171Y-88720514D01*
X157115171Y-88577657D01*
X157043742Y-88434800D01*
X156972314Y-88363371D01*
X156829457Y-88291942D01*
X156543742Y-88220514D01*
X156186600Y-88220514D01*
X155900885Y-88291942D01*
X155758028Y-88363371D01*
X155686600Y-88434800D01*
X155615171Y-88577657D01*
X156115171Y-90363371D02*
X157115171Y-90363371D01*
X155543742Y-90006228D02*
X156615171Y-89649085D01*
X156615171Y-90577657D01*
X155543742Y-92220514D02*
X157472314Y-90934800D01*
X155758028Y-92649085D02*
X155686600Y-92720514D01*
X155615171Y-92863371D01*
X155615171Y-93220514D01*
X155686600Y-93363371D01*
X155758028Y-93434800D01*
X155900885Y-93506228D01*
X156043742Y-93506228D01*
X156258028Y-93434800D01*
X157115171Y-92577657D01*
X157115171Y-93506228D01*
X155615171Y-94434800D02*
X155615171Y-94577657D01*
X155686600Y-94720514D01*
X155758028Y-94791942D01*
X155900885Y-94863371D01*
X156186600Y-94934800D01*
X156543742Y-94934800D01*
X156829457Y-94863371D01*
X156972314Y-94791942D01*
X157043742Y-94720514D01*
X157115171Y-94577657D01*
X157115171Y-94434800D01*
X157043742Y-94291942D01*
X156972314Y-94220514D01*
X156829457Y-94149085D01*
X156543742Y-94077657D01*
X156186600Y-94077657D01*
X155900885Y-94149085D01*
X155758028Y-94220514D01*
X155686600Y-94291942D01*
X155615171Y-94434800D01*
X159530171Y-77684800D02*
X158030171Y-77684800D01*
X159101600Y-78184800D01*
X158030171Y-78684800D01*
X159530171Y-78684800D01*
X159530171Y-80041942D02*
X158744457Y-80041942D01*
X158601600Y-79970514D01*
X158530171Y-79827657D01*
X158530171Y-79541942D01*
X158601600Y-79399085D01*
X159458742Y-80041942D02*
X159530171Y-79899085D01*
X159530171Y-79541942D01*
X159458742Y-79399085D01*
X159315885Y-79327657D01*
X159173028Y-79327657D01*
X159030171Y-79399085D01*
X158958742Y-79541942D01*
X158958742Y-79899085D01*
X158887314Y-80041942D01*
X159458742Y-80684800D02*
X159530171Y-80827657D01*
X159530171Y-81113371D01*
X159458742Y-81256228D01*
X159315885Y-81327657D01*
X159244457Y-81327657D01*
X159101600Y-81256228D01*
X159030171Y-81113371D01*
X159030171Y-80899085D01*
X158958742Y-80756228D01*
X158815885Y-80684800D01*
X158744457Y-80684800D01*
X158601600Y-80756228D01*
X158530171Y-80899085D01*
X158530171Y-81113371D01*
X158601600Y-81256228D01*
X159530171Y-82613371D02*
X158744457Y-82613371D01*
X158601600Y-82541942D01*
X158530171Y-82399085D01*
X158530171Y-82113371D01*
X158601600Y-81970514D01*
X159458742Y-82613371D02*
X159530171Y-82470514D01*
X159530171Y-82113371D01*
X159458742Y-81970514D01*
X159315885Y-81899085D01*
X159173028Y-81899085D01*
X159030171Y-81970514D01*
X158958742Y-82113371D01*
X158958742Y-82470514D01*
X158887314Y-82613371D01*
X159530171Y-83327657D02*
X158030171Y-83327657D01*
X159530171Y-83970514D02*
X158744457Y-83970514D01*
X158601600Y-83899085D01*
X158530171Y-83756228D01*
X158530171Y-83541942D01*
X158601600Y-83399085D01*
X158673028Y-83327657D01*
X159530171Y-84684800D02*
X158530171Y-84684800D01*
X158030171Y-84684800D02*
X158101600Y-84613371D01*
X158173028Y-84684800D01*
X158101600Y-84756228D01*
X158030171Y-84684800D01*
X158173028Y-84684800D01*
X159530171Y-85399085D02*
X158530171Y-85399085D01*
X158815885Y-85399085D02*
X158673028Y-85470514D01*
X158601600Y-85541942D01*
X158530171Y-85684800D01*
X158530171Y-85827657D01*
X159530171Y-86541942D02*
X159458742Y-86399085D01*
X159387314Y-86327657D01*
X159244457Y-86256228D01*
X158815885Y-86256228D01*
X158673028Y-86327657D01*
X158601600Y-86399085D01*
X158530171Y-86541942D01*
X158530171Y-86756228D01*
X158601600Y-86899085D01*
X158673028Y-86970514D01*
X158815885Y-87041942D01*
X159244457Y-87041942D01*
X159387314Y-86970514D01*
X159458742Y-86899085D01*
X159530171Y-86756228D01*
X159530171Y-86541942D01*
X159530171Y-88827657D02*
X158030171Y-88827657D01*
X159530171Y-89684800D02*
X158673028Y-89041942D01*
X158030171Y-89684800D02*
X158887314Y-88827657D01*
X158530171Y-90970514D02*
X159530171Y-90970514D01*
X158530171Y-90327657D02*
X159315885Y-90327657D01*
X159458742Y-90399085D01*
X159530171Y-90541942D01*
X159530171Y-90756228D01*
X159458742Y-90899085D01*
X159387314Y-90970514D01*
X159458742Y-91613371D02*
X159530171Y-91756228D01*
X159530171Y-92041942D01*
X159458742Y-92184800D01*
X159315885Y-92256228D01*
X159244457Y-92256228D01*
X159101600Y-92184800D01*
X159030171Y-92041942D01*
X159030171Y-91827657D01*
X158958742Y-91684800D01*
X158815885Y-91613371D01*
X158744457Y-91613371D01*
X158601600Y-91684800D01*
X158530171Y-91827657D01*
X158530171Y-92041942D01*
X158601600Y-92184800D01*
X158530171Y-93541942D02*
X159530171Y-93541942D01*
X158530171Y-92899085D02*
X159315885Y-92899085D01*
X159458742Y-92970514D01*
X159530171Y-93113371D01*
X159530171Y-93327657D01*
X159458742Y-93470514D01*
X159387314Y-93541942D01*
X158530171Y-94256228D02*
X159530171Y-94256228D01*
X158673028Y-94256228D02*
X158601600Y-94327657D01*
X158530171Y-94470514D01*
X158530171Y-94684800D01*
X158601600Y-94827657D01*
X158744457Y-94899085D01*
X159530171Y-94899085D01*
X159530171Y-95827657D02*
X159458742Y-95684800D01*
X159387314Y-95613371D01*
X159244457Y-95541942D01*
X158815885Y-95541942D01*
X158673028Y-95613371D01*
X158601600Y-95684800D01*
X158530171Y-95827657D01*
X158530171Y-96041942D01*
X158601600Y-96184800D01*
X158673028Y-96256228D01*
X158815885Y-96327657D01*
X159244457Y-96327657D01*
X159387314Y-96256228D01*
X159458742Y-96184800D01*
X159530171Y-96041942D01*
X159530171Y-95827657D01*
X159530171Y-96970514D02*
X158030171Y-96970514D01*
X158958742Y-97113371D02*
X159530171Y-97541942D01*
X158530171Y-97541942D02*
X159101600Y-96970514D01*
X159530171Y-98184800D02*
X158530171Y-98184800D01*
X158030171Y-98184800D02*
X158101600Y-98113371D01*
X158173028Y-98184800D01*
X158101600Y-98256228D01*
X158030171Y-98184800D01*
X158173028Y-98184800D01*
X160445171Y-84506228D02*
X161516600Y-84506228D01*
X161730885Y-84434800D01*
X161873742Y-84291942D01*
X161945171Y-84077657D01*
X161945171Y-83934800D01*
X161945171Y-85220514D02*
X160445171Y-85220514D01*
X160445171Y-85791942D01*
X160516600Y-85934800D01*
X160588028Y-86006228D01*
X160730885Y-86077657D01*
X160945171Y-86077657D01*
X161088028Y-86006228D01*
X161159457Y-85934800D01*
X161230885Y-85791942D01*
X161230885Y-85220514D01*
X160445171Y-86577657D02*
X160445171Y-87506228D01*
X161016600Y-87006228D01*
X161016600Y-87220514D01*
X161088028Y-87363371D01*
X161159457Y-87434800D01*
X161302314Y-87506228D01*
X161659457Y-87506228D01*
X161802314Y-87434800D01*
X161873742Y-87363371D01*
X161945171Y-87220514D01*
X161945171Y-86791942D01*
X161873742Y-86649085D01*
X161802314Y-86577657D01*
X161873742Y-88077657D02*
X161945171Y-88291942D01*
X161945171Y-88649085D01*
X161873742Y-88791942D01*
X161802314Y-88863371D01*
X161659457Y-88934800D01*
X161516600Y-88934800D01*
X161373742Y-88863371D01*
X161302314Y-88791942D01*
X161230885Y-88649085D01*
X161159457Y-88363371D01*
X161088028Y-88220514D01*
X161016600Y-88149085D01*
X160873742Y-88077657D01*
X160730885Y-88077657D01*
X160588028Y-88149085D01*
X160516600Y-88220514D01*
X160445171Y-88363371D01*
X160445171Y-88720514D01*
X160516600Y-88934800D01*
X161945171Y-90434800D02*
X161230885Y-89934800D01*
X161945171Y-89577657D02*
X160445171Y-89577657D01*
X160445171Y-90149085D01*
X160516600Y-90291942D01*
X160588028Y-90363371D01*
X160730885Y-90434800D01*
X160945171Y-90434800D01*
X161088028Y-90363371D01*
X161159457Y-90291942D01*
X161230885Y-90149085D01*
X161230885Y-89577657D01*
X161873742Y-91006228D02*
X161945171Y-91220514D01*
X161945171Y-91577657D01*
X161873742Y-91720514D01*
X161802314Y-91791942D01*
X161659457Y-91863371D01*
X161516600Y-91863371D01*
X161373742Y-91791942D01*
X161302314Y-91720514D01*
X161230885Y-91577657D01*
X161159457Y-91291942D01*
X161088028Y-91149085D01*
X161016600Y-91077657D01*
X160873742Y-91006228D01*
X160730885Y-91006228D01*
X160588028Y-91077657D01*
X160516600Y-91149085D01*
X160445171Y-91291942D01*
X160445171Y-91649085D01*
X160516600Y-91863371D01*
M02*
