%TF.GenerationSoftware,KiCad,Pcbnew,(6.0.4)*%
%TF.CreationDate,2022-04-20T16:37:51+09:00*%
%TF.ProjectId,KiCad,4b694361-642e-46b6-9963-61645f706362,rev?*%
%TF.SameCoordinates,Original*%
%TF.FileFunction,Profile,NP*%
%FSLAX46Y46*%
G04 Gerber Fmt 4.6, Leading zero omitted, Abs format (unit mm)*
G04 Created by KiCad (PCBNEW (6.0.4)) date 2022-04-20 16:37:51*
%MOMM*%
%LPD*%
G01*
G04 APERTURE LIST*
%TA.AperFunction,Profile*%
%ADD10C,0.100000*%
%TD*%
%TA.AperFunction,Profile*%
%ADD11C,0.150000*%
%TD*%
G04 APERTURE END LIST*
D10*
X103000000Y-55000000D02*
X197000000Y-55000000D01*
X180000000Y-92000000D02*
X180000000Y-117000000D01*
D11*
X177000000Y-120000000D02*
G75*
G03*
X180000000Y-117000000I0J3000000D01*
G01*
D10*
X177000000Y-120000000D02*
X121000000Y-120000000D01*
D11*
X103000000Y-55000000D02*
G75*
G03*
X100000000Y-58000000I0J-3000000D01*
G01*
D10*
X100000000Y-100000000D02*
X100000000Y-58000000D01*
D11*
X100000000Y-100000000D02*
G75*
G03*
X103000000Y-103000000I3000000J0D01*
G01*
D10*
X103000000Y-103000000D02*
X115000000Y-103000000D01*
D11*
X200000000Y-58000000D02*
G75*
G03*
X197000000Y-55000000I-3000000J0D01*
G01*
D10*
X200000000Y-58000000D02*
X200000000Y-86000000D01*
D11*
X118000000Y-117000000D02*
G75*
G03*
X121000000Y-120000000I3000000J0D01*
G01*
X118000000Y-106000000D02*
G75*
G03*
X115000000Y-103000000I-3000000J0D01*
G01*
D10*
X118000000Y-117000000D02*
X118000000Y-106000000D01*
D11*
X197000000Y-89000000D02*
G75*
G03*
X200000000Y-86000000I0J3000000D01*
G01*
X183000000Y-89000000D02*
G75*
G03*
X180000000Y-92000000I0J-3000000D01*
G01*
D10*
X197000000Y-89000000D02*
X183000000Y-89000000D01*
X101666666Y-120000000D02*
G75*
G03*
X101666666Y-120000000I-1666666J0D01*
G01*
X97500000Y-120000000D02*
X102500000Y-120000000D01*
X100000000Y-117500000D02*
X100000000Y-122500000D01*
X201666666Y-120000000D02*
G75*
G03*
X201666666Y-120000000I-1666666J0D01*
G01*
X197500000Y-120000000D02*
X202500000Y-120000000D01*
X200000000Y-117500000D02*
X200000000Y-122500000D01*
X101666666Y-55000000D02*
G75*
G03*
X101666666Y-55000000I-1666666J0D01*
G01*
X97500000Y-55000000D02*
X102500000Y-55000000D01*
X100000000Y-52500000D02*
X100000000Y-57500000D01*
X201666666Y-55000000D02*
G75*
G03*
X201666666Y-55000000I-1666666J0D01*
G01*
X197500000Y-55000000D02*
X202500000Y-55000000D01*
X200000000Y-52500000D02*
X200000000Y-57500000D01*
M02*
