%FSLAX45Y45*%
G04 Gerber Fmt 4.5, Leading zero omitted, Abs format (unit mm)*
G04 Created by KiCad (PCBNEW (6.0.4)) date 2022-04-20 16:37:56*
%MOMM*%
%LPD*%
G01*
G04 APERTURE LIST*
%TA.AperFunction,Profile*%
%ADD10C,0.100000*%
%TD*%
%TA.AperFunction,Profile*%
%ADD11C,0.150000*%
%TD*%
%ADD12C,0.200000*%
G04 APERTURE END LIST*
D10*
X10300000Y-5500000D02*
X19700000Y-5500000D01*
X18000000Y-9200000D02*
X18000000Y-11700000D01*
D11*
X17700000Y-12000000D02*
G75*
G03*
X18000000Y-11700000I0J300000D01*
G01*
D10*
X17700000Y-12000000D02*
X12100000Y-12000000D01*
D11*
X10300000Y-5500000D02*
G75*
G03*
X10000000Y-5800000I0J-300000D01*
G01*
D10*
X10000000Y-10000000D02*
X10000000Y-5800000D01*
D11*
X10000000Y-10000000D02*
G75*
G03*
X10300000Y-10300000I300000J0D01*
G01*
D10*
X10300000Y-10300000D02*
X11500000Y-10300000D01*
D11*
X20000000Y-5800000D02*
G75*
G03*
X19700000Y-5500000I-300000J0D01*
G01*
D10*
X20000000Y-5800000D02*
X20000000Y-8600000D01*
D11*
X11800000Y-11700000D02*
G75*
G03*
X12100000Y-12000000I300000J0D01*
G01*
X11800000Y-10600000D02*
G75*
G03*
X11500000Y-10300000I-300000J0D01*
G01*
D10*
X11800000Y-11700000D02*
X11800000Y-10600000D01*
D11*
X19700000Y-8900000D02*
G75*
G03*
X20000000Y-8600000I0J300000D01*
G01*
X18300000Y-8900000D02*
G75*
G03*
X18000000Y-9200000I0J-300000D01*
G01*
D10*
X19700000Y-8900000D02*
X18300000Y-8900000D01*
D12*
X10250119Y-12317976D02*
X10250119Y-12117976D01*
X10297738Y-12117976D01*
X10326310Y-12127500D01*
X10345357Y-12146548D01*
X10354881Y-12165595D01*
X10364405Y-12203690D01*
X10364405Y-12232262D01*
X10354881Y-12270357D01*
X10345357Y-12289405D01*
X10326310Y-12308452D01*
X10297738Y-12317976D01*
X10250119Y-12317976D01*
X10450119Y-12317976D02*
X10450119Y-12184643D01*
X10450119Y-12222738D02*
X10459643Y-12203690D01*
X10469167Y-12194167D01*
X10488214Y-12184643D01*
X10507262Y-12184643D01*
X10573929Y-12317976D02*
X10573929Y-12184643D01*
X10573929Y-12117976D02*
X10564405Y-12127500D01*
X10573929Y-12137024D01*
X10583452Y-12127500D01*
X10573929Y-12117976D01*
X10573929Y-12137024D01*
X10697738Y-12317976D02*
X10678690Y-12308452D01*
X10669167Y-12289405D01*
X10669167Y-12117976D01*
X10802500Y-12317976D02*
X10783452Y-12308452D01*
X10773929Y-12289405D01*
X10773929Y-12117976D01*
X11031071Y-12317976D02*
X11031071Y-12117976D01*
X11097738Y-12260833D01*
X11164405Y-12117976D01*
X11164405Y-12317976D01*
X11345357Y-12317976D02*
X11345357Y-12213214D01*
X11335833Y-12194167D01*
X11316786Y-12184643D01*
X11278690Y-12184643D01*
X11259643Y-12194167D01*
X11345357Y-12308452D02*
X11326309Y-12317976D01*
X11278690Y-12317976D01*
X11259643Y-12308452D01*
X11250119Y-12289405D01*
X11250119Y-12270357D01*
X11259643Y-12251309D01*
X11278690Y-12241786D01*
X11326309Y-12241786D01*
X11345357Y-12232262D01*
X11440595Y-12184643D02*
X11440595Y-12384643D01*
X11440595Y-12194167D02*
X11459643Y-12184643D01*
X11497738Y-12184643D01*
X11516786Y-12194167D01*
X11526309Y-12203690D01*
X11535833Y-12222738D01*
X11535833Y-12279881D01*
X11526309Y-12298928D01*
X11516786Y-12308452D01*
X11497738Y-12317976D01*
X11459643Y-12317976D01*
X11440595Y-12308452D01*
X11621548Y-12298928D02*
X11631071Y-12308452D01*
X11621548Y-12317976D01*
X11612024Y-12308452D01*
X11621548Y-12298928D01*
X11621548Y-12317976D01*
X11621548Y-12194167D02*
X11631071Y-12203690D01*
X11621548Y-12213214D01*
X11612024Y-12203690D01*
X11621548Y-12194167D01*
X11621548Y-12213214D01*
M02*
