%FSLAX45Y45*%
G04 Gerber Fmt 4.5, Leading zero omitted, Abs format (unit mm)*
G04 Created by KiCad (PCBNEW (6.0.4)) date 2022-04-20 16:37:56*
%MOMM*%
%LPD*%
G01*
G04 APERTURE LIST*
%TA.AperFunction,Profile*%
%ADD10C,0.100000*%
%TD*%
%TA.AperFunction,Profile*%
%ADD11C,0.150000*%
%TD*%
%ADD12C,0.200000*%
%ADD13C,0.070000*%
%ADD14C,0.075000*%
%ADD15C,0.080000*%
%ADD16C,0.100000*%
%ADD17C,0.110000*%
%ADD18C,0.120000*%
%ADD19C,0.130000*%
%ADD20C,0.220000*%
G04 APERTURE END LIST*
D10*
X10300000Y-5500000D02*
X19700000Y-5500000D01*
X18000000Y-9200000D02*
X18000000Y-11700000D01*
D11*
X17700000Y-12000000D02*
G75*
G03*
X18000000Y-11700000I0J300000D01*
G01*
D10*
X17700000Y-12000000D02*
X12100000Y-12000000D01*
D11*
X10300000Y-5500000D02*
G75*
G03*
X10000000Y-5800000I0J-300000D01*
G01*
D10*
X10000000Y-10000000D02*
X10000000Y-5800000D01*
D11*
X10000000Y-10000000D02*
G75*
G03*
X10300000Y-10300000I300000J0D01*
G01*
D10*
X10300000Y-10300000D02*
X11500000Y-10300000D01*
D11*
X20000000Y-5800000D02*
G75*
G03*
X19700000Y-5500000I-300000J0D01*
G01*
D10*
X20000000Y-5800000D02*
X20000000Y-8600000D01*
D11*
X11800000Y-11700000D02*
G75*
G03*
X12100000Y-12000000I300000J0D01*
G01*
X11800000Y-10600000D02*
G75*
G03*
X11500000Y-10300000I-300000J0D01*
G01*
D10*
X11800000Y-11700000D02*
X11800000Y-10600000D01*
D11*
X19700000Y-8900000D02*
G75*
G03*
X20000000Y-8600000I0J300000D01*
G01*
X18300000Y-8900000D02*
G75*
G03*
X18000000Y-9200000I0J-300000D01*
G01*
D10*
X19700000Y-8900000D02*
X18300000Y-8900000D01*
D12*
D13*
X12265000Y-10666020D02*
X12335000Y-10736020D01*
X12335000Y-10666020D02*
X12265000Y-10736020D01*
X12265000Y-10916020D02*
X12335000Y-10986020D01*
X12335000Y-10916020D02*
X12265000Y-10986020D01*
X12465000Y-10666020D02*
X12535000Y-10736020D01*
X12535000Y-10666020D02*
X12465000Y-10736020D01*
X12465000Y-10916020D02*
X12535000Y-10986020D01*
X12535000Y-10916020D02*
X12465000Y-10986020D01*
X12665000Y-10666020D02*
X12735000Y-10736020D01*
X12735000Y-10666020D02*
X12665000Y-10736020D01*
X12665000Y-10916020D02*
X12735000Y-10986020D01*
X12735000Y-10916020D02*
X12665000Y-10986020D01*
X12865000Y-10666020D02*
X12935000Y-10736020D01*
X12935000Y-10666020D02*
X12865000Y-10736020D01*
X12865000Y-10916020D02*
X12935000Y-10986020D01*
X12935000Y-10916020D02*
X12865000Y-10986020D01*
X13065000Y-10666020D02*
X13135000Y-10736020D01*
X13135000Y-10666020D02*
X13065000Y-10736020D01*
X13065000Y-10916020D02*
X13135000Y-10986020D01*
X13135000Y-10916020D02*
X13065000Y-10986020D01*
X13265000Y-10666020D02*
X13335000Y-10736020D01*
X13335000Y-10666020D02*
X13265000Y-10736020D01*
X13265000Y-10916020D02*
X13335000Y-10986020D01*
X13335000Y-10916020D02*
X13265000Y-10986020D01*
D14*
X14206000Y-11100000D02*
G75*
G03*
X14206000Y-11100000I-37500J0D01*
G01*
X14968000Y-11100000D02*
G75*
G03*
X14968000Y-11100000I-37500J0D01*
G01*
X16037500Y-10536000D02*
G75*
G03*
X16037500Y-10536000I-37500J0D01*
G01*
X16164500Y-10409000D02*
G75*
G03*
X16164500Y-10409000I-37500J0D01*
G01*
X16291500Y-10536000D02*
G75*
G03*
X16291500Y-10536000I-37500J0D01*
G01*
X16837500Y-10536000D02*
G75*
G03*
X16837500Y-10536000I-37500J0D01*
G01*
X16964500Y-10409000D02*
G75*
G03*
X16964500Y-10409000I-37500J0D01*
G01*
X17091500Y-10536000D02*
G75*
G03*
X17091500Y-10536000I-37500J0D01*
G01*
D15*
X12077200Y-9423040D02*
X12077200Y-9503040D01*
X12037200Y-9463040D02*
X12117200Y-9463040D01*
X12077200Y-10185040D02*
X12077200Y-10265040D01*
X12037200Y-10225040D02*
X12117200Y-10225040D01*
X12331200Y-9423040D02*
X12331200Y-9503040D01*
X12291200Y-9463040D02*
X12371200Y-9463040D01*
X12331200Y-10185040D02*
X12331200Y-10265040D01*
X12291200Y-10225040D02*
X12371200Y-10225040D01*
X12585200Y-9423040D02*
X12585200Y-9503040D01*
X12545200Y-9463040D02*
X12625200Y-9463040D01*
X12585200Y-10185040D02*
X12585200Y-10265040D01*
X12545200Y-10225040D02*
X12625200Y-10225040D01*
X12839200Y-9423040D02*
X12839200Y-9503040D01*
X12799200Y-9463040D02*
X12879200Y-9463040D01*
X12839200Y-10185040D02*
X12839200Y-10265040D01*
X12799200Y-10225040D02*
X12879200Y-10225040D01*
X12922350Y-6472650D02*
X12922350Y-6552650D01*
X12882350Y-6512650D02*
X12962350Y-6512650D01*
X12928600Y-6093400D02*
X12928600Y-6173400D01*
X12888600Y-6133400D02*
X12968600Y-6133400D01*
X12928600Y-6843400D02*
X12928600Y-6923400D01*
X12888600Y-6883400D02*
X12968600Y-6883400D01*
X13093200Y-9423040D02*
X13093200Y-9503040D01*
X13053200Y-9463040D02*
X13133200Y-9463040D01*
X13093200Y-10185040D02*
X13093200Y-10265040D01*
X13053200Y-10225040D02*
X13133200Y-10225040D01*
X13347200Y-9423040D02*
X13347200Y-9503040D01*
X13307200Y-9463040D02*
X13387200Y-9463040D01*
X13347200Y-10185040D02*
X13347200Y-10265040D01*
X13307200Y-10225040D02*
X13387200Y-10225040D01*
X13601200Y-9423040D02*
X13601200Y-9503040D01*
X13561200Y-9463040D02*
X13641200Y-9463040D01*
X13601200Y-10185040D02*
X13601200Y-10265040D01*
X13561200Y-10225040D02*
X13641200Y-10225040D01*
X13684350Y-6472650D02*
X13684350Y-6552650D01*
X13644350Y-6512650D02*
X13724350Y-6512650D01*
X13690600Y-6093400D02*
X13690600Y-6173400D01*
X13650600Y-6133400D02*
X13730600Y-6133400D01*
X13690600Y-6843400D02*
X13690600Y-6923400D01*
X13650600Y-6883400D02*
X13730600Y-6883400D01*
X13855200Y-9423040D02*
X13855200Y-9503040D01*
X13815200Y-9463040D02*
X13895200Y-9463040D01*
X13855200Y-10185040D02*
X13855200Y-10265040D01*
X13815200Y-10225040D02*
X13895200Y-10225040D01*
X14100000Y-6410000D02*
X14100000Y-6490000D01*
X14060000Y-6450000D02*
X14140000Y-6450000D01*
X14100000Y-6910000D02*
X14100000Y-6990000D01*
X14060000Y-6950000D02*
X14140000Y-6950000D01*
X14109200Y-9423040D02*
X14109200Y-9503040D01*
X14069200Y-9463040D02*
X14149200Y-9463040D01*
X14109200Y-10185040D02*
X14109200Y-10265040D01*
X14069200Y-10225040D02*
X14149200Y-10225040D01*
X14363200Y-9423040D02*
X14363200Y-9503040D01*
X14323200Y-9463040D02*
X14403200Y-9463040D01*
X14363200Y-10185040D02*
X14363200Y-10265040D01*
X14323200Y-10225040D02*
X14403200Y-10225040D01*
X14520000Y-6130000D02*
X14520000Y-6210000D01*
X14480000Y-6170000D02*
X14560000Y-6170000D01*
X14520000Y-6384000D02*
X14520000Y-6464000D01*
X14480000Y-6424000D02*
X14560000Y-6424000D01*
X14520000Y-6638000D02*
X14520000Y-6718000D01*
X14480000Y-6678000D02*
X14560000Y-6678000D01*
X14520000Y-6892000D02*
X14520000Y-6972000D01*
X14480000Y-6932000D02*
X14560000Y-6932000D01*
X14617200Y-9423040D02*
X14617200Y-9503040D01*
X14577200Y-9463040D02*
X14657200Y-9463040D01*
X14617200Y-10185040D02*
X14617200Y-10265040D01*
X14577200Y-10225040D02*
X14657200Y-10225040D01*
X14871200Y-9423040D02*
X14871200Y-9503040D01*
X14831200Y-9463040D02*
X14911200Y-9463040D01*
X14871200Y-10185040D02*
X14871200Y-10265040D01*
X14831200Y-10225040D02*
X14911200Y-10225040D01*
X15282000Y-6130000D02*
X15282000Y-6210000D01*
X15242000Y-6170000D02*
X15322000Y-6170000D01*
X15282000Y-6384000D02*
X15282000Y-6464000D01*
X15242000Y-6424000D02*
X15322000Y-6424000D01*
X15282000Y-6638000D02*
X15282000Y-6718000D01*
X15242000Y-6678000D02*
X15322000Y-6678000D01*
X15282000Y-6892000D02*
X15282000Y-6972000D01*
X15242000Y-6932000D02*
X15322000Y-6932000D01*
X15319000Y-11060000D02*
X15319000Y-11140000D01*
X15279000Y-11100000D02*
X15359000Y-11100000D01*
X15319000Y-11560000D02*
X15319000Y-11640000D01*
X15279000Y-11600000D02*
X15359000Y-11600000D01*
X15542260Y-6646740D02*
X15542260Y-6726740D01*
X15502260Y-6686740D02*
X15582260Y-6686740D01*
X15542260Y-7146740D02*
X15542260Y-7226740D01*
X15502260Y-7186740D02*
X15582260Y-7186740D01*
X15600000Y-9779000D02*
X15600000Y-9859000D01*
X15560000Y-9819000D02*
X15640000Y-9819000D01*
X15600000Y-10541000D02*
X15600000Y-10621000D01*
X15560000Y-10581000D02*
X15640000Y-10581000D01*
X16081000Y-11060000D02*
X16081000Y-11140000D01*
X16041000Y-11100000D02*
X16121000Y-11100000D01*
X16081000Y-11560000D02*
X16081000Y-11640000D01*
X16041000Y-11600000D02*
X16121000Y-11600000D01*
X16538000Y-11060000D02*
X16538000Y-11140000D01*
X16498000Y-11100000D02*
X16578000Y-11100000D01*
X16539000Y-11560000D02*
X16539000Y-11640000D01*
X16499000Y-11600000D02*
X16579000Y-11600000D01*
X17300000Y-11060000D02*
X17300000Y-11140000D01*
X17260000Y-11100000D02*
X17340000Y-11100000D01*
X17301000Y-11560000D02*
X17301000Y-11640000D01*
X17261000Y-11600000D02*
X17341000Y-11600000D01*
X17750000Y-8660000D02*
X17750000Y-8740000D01*
X17710000Y-8700000D02*
X17790000Y-8700000D01*
X18000000Y-6055511D02*
X18000000Y-6135511D01*
X17960000Y-6095511D02*
X18040000Y-6095511D01*
X18000000Y-6255511D02*
X18000000Y-6335511D01*
X17960000Y-6295511D02*
X18040000Y-6295511D01*
X18250000Y-8660000D02*
X18250000Y-8740000D01*
X18210000Y-8700000D02*
X18290000Y-8700000D01*
D16*
X11735356Y-8211356D02*
X11735356Y-8140644D01*
X11664644Y-8140644D01*
X11664644Y-8211356D01*
X11735356Y-8211356D01*
X11735356Y-9735356D02*
X11735356Y-9664644D01*
X11664644Y-9664644D01*
X11664644Y-9735356D01*
X11735356Y-9735356D01*
X11989356Y-8211356D02*
X11989356Y-8140644D01*
X11918644Y-8140644D01*
X11918644Y-8211356D01*
X11989356Y-8211356D01*
X11989356Y-9735356D02*
X11989356Y-9664644D01*
X11918644Y-9664644D01*
X11918644Y-9735356D01*
X11989356Y-9735356D01*
X12243356Y-8211356D02*
X12243356Y-8140644D01*
X12172644Y-8140644D01*
X12172644Y-8211356D01*
X12243356Y-8211356D01*
X12243356Y-9735356D02*
X12243356Y-9664644D01*
X12172644Y-9664644D01*
X12172644Y-9735356D01*
X12243356Y-9735356D01*
X12288706Y-6618756D02*
X12288706Y-6548044D01*
X12217994Y-6548044D01*
X12217994Y-6618756D01*
X12288706Y-6618756D01*
X12288706Y-6872756D02*
X12288706Y-6802044D01*
X12217994Y-6802044D01*
X12217994Y-6872756D01*
X12288706Y-6872756D01*
X12497356Y-8211356D02*
X12497356Y-8140644D01*
X12426644Y-8140644D01*
X12426644Y-8211356D01*
X12497356Y-8211356D01*
X12497356Y-9735356D02*
X12497356Y-9664644D01*
X12426644Y-9664644D01*
X12426644Y-9735356D01*
X12497356Y-9735356D01*
X12751356Y-8211356D02*
X12751356Y-8140644D01*
X12680644Y-8140644D01*
X12680644Y-8211356D01*
X12751356Y-8211356D01*
X12751356Y-9735356D02*
X12751356Y-9664644D01*
X12680644Y-9664644D01*
X12680644Y-9735356D01*
X12751356Y-9735356D01*
X13005356Y-8211356D02*
X13005356Y-8140644D01*
X12934644Y-8140644D01*
X12934644Y-8211356D01*
X13005356Y-8211356D01*
X13005356Y-9735356D02*
X13005356Y-9664644D01*
X12934644Y-9664644D01*
X12934644Y-9735356D01*
X13005356Y-9735356D01*
X13259356Y-8211356D02*
X13259356Y-8140644D01*
X13188644Y-8140644D01*
X13188644Y-8211356D01*
X13259356Y-8211356D01*
X13259356Y-9735356D02*
X13259356Y-9664644D01*
X13188644Y-9664644D01*
X13188644Y-9735356D01*
X13259356Y-9735356D01*
X13513356Y-8211356D02*
X13513356Y-8140644D01*
X13442644Y-8140644D01*
X13442644Y-8211356D01*
X13513356Y-8211356D01*
X13513356Y-9735356D02*
X13513356Y-9664644D01*
X13442644Y-9664644D01*
X13442644Y-9735356D01*
X13513356Y-9735356D01*
X13767356Y-8211356D02*
X13767356Y-8140644D01*
X13696644Y-8140644D01*
X13696644Y-8211356D01*
X13767356Y-8211356D01*
X13767356Y-9735356D02*
X13767356Y-9664644D01*
X13696644Y-9664644D01*
X13696644Y-9735356D01*
X13767356Y-9735356D01*
X14021356Y-8211356D02*
X14021356Y-8140644D01*
X13950644Y-8140644D01*
X13950644Y-8211356D01*
X14021356Y-8211356D01*
X14021356Y-9735356D02*
X14021356Y-9664644D01*
X13950644Y-9664644D01*
X13950644Y-9735356D01*
X14021356Y-9735356D01*
X14275356Y-8211356D02*
X14275356Y-8140644D01*
X14204644Y-8140644D01*
X14204644Y-8211356D01*
X14275356Y-8211356D01*
X14275356Y-9735356D02*
X14275356Y-9664644D01*
X14204644Y-9664644D01*
X14204644Y-9735356D01*
X14275356Y-9735356D01*
X14529356Y-8211356D02*
X14529356Y-8140644D01*
X14458644Y-8140644D01*
X14458644Y-8211356D01*
X14529356Y-8211356D01*
X14529356Y-9735356D02*
X14529356Y-9664644D01*
X14458644Y-9664644D01*
X14458644Y-9735356D01*
X14529356Y-9735356D01*
X16935356Y-9235356D02*
X16935356Y-9164644D01*
X16864644Y-9164644D01*
X16864644Y-9235356D01*
X16935356Y-9235356D01*
X17735356Y-9235356D02*
X17735356Y-9164644D01*
X17664644Y-9164644D01*
X17664644Y-9235356D01*
X17735356Y-9235356D01*
X17735356Y-10435356D02*
X17735356Y-10364644D01*
X17664644Y-10364644D01*
X17664644Y-10435356D01*
X17735356Y-10435356D01*
X18035356Y-7672123D02*
X18035356Y-7601412D01*
X17964644Y-7601412D01*
X17964644Y-7672123D01*
X18035356Y-7672123D01*
X18035356Y-8172123D02*
X18035356Y-8101412D01*
X17964644Y-8101412D01*
X17964644Y-8172123D01*
X18035356Y-8172123D01*
X18654106Y-6581106D02*
X18654106Y-6510394D01*
X18583394Y-6510394D01*
X18583394Y-6581106D01*
X18654106Y-6581106D01*
D12*
X18658750Y-6660750D02*
X18658750Y-6430750D01*
X18578750Y-6660750D02*
X18578750Y-6430750D01*
X18658750Y-6430750D02*
G75*
G03*
X18578750Y-6430750I-40000J0D01*
G01*
X18578750Y-6660750D02*
G75*
G03*
X18658750Y-6660750I40000J0D01*
G01*
D16*
X18934106Y-6111106D02*
X18934106Y-6040394D01*
X18863394Y-6040394D01*
X18863394Y-6111106D01*
X18934106Y-6111106D01*
D12*
X18998750Y-6035750D02*
X18798750Y-6035750D01*
X18998750Y-6115750D02*
X18798750Y-6115750D01*
X18798750Y-6035750D02*
G75*
G03*
X18798750Y-6115750I0J-40000D01*
G01*
X18998750Y-6115750D02*
G75*
G03*
X18998750Y-6035750I0J40000D01*
G01*
D16*
X19254106Y-6581106D02*
X19254106Y-6510394D01*
X19183394Y-6510394D01*
X19183394Y-6581106D01*
X19254106Y-6581106D01*
D12*
X19258750Y-6645750D02*
X19258750Y-6445750D01*
X19178750Y-6645750D02*
X19178750Y-6445750D01*
X19258750Y-6445750D02*
G75*
G03*
X19178750Y-6445750I-40000J0D01*
G01*
X19178750Y-6645750D02*
G75*
G03*
X19258750Y-6645750I40000J0D01*
G01*
D17*
X14042000Y-10655000D02*
X14097000Y-10600000D01*
X14042000Y-10545000D01*
X13987000Y-10600000D01*
X14042000Y-10655000D01*
X14392000Y-7555000D02*
X14447000Y-7500000D01*
X14392000Y-7445000D01*
X14337000Y-7500000D01*
X14392000Y-7555000D01*
X15058000Y-10655000D02*
X15113000Y-10600000D01*
X15058000Y-10545000D01*
X15003000Y-10600000D01*
X15058000Y-10655000D01*
X15408000Y-7555000D02*
X15463000Y-7500000D01*
X15408000Y-7445000D01*
X15353000Y-7500000D01*
X15408000Y-7555000D01*
D18*
X15778000Y-6140000D02*
X15898000Y-6260000D01*
X15898000Y-6140000D02*
X15778000Y-6260000D01*
X15898000Y-6200000D02*
G75*
G03*
X15898000Y-6200000I-60000J0D01*
G01*
X15778000Y-6840000D02*
X15898000Y-6960000D01*
X15898000Y-6840000D02*
X15778000Y-6960000D01*
X15898000Y-6900000D02*
G75*
G03*
X15898000Y-6900000I-60000J0D01*
G01*
X17302000Y-6140000D02*
X17422000Y-6260000D01*
X17422000Y-6140000D02*
X17302000Y-6260000D01*
X17422000Y-6200000D02*
G75*
G03*
X17422000Y-6200000I-60000J0D01*
G01*
X17302000Y-6840000D02*
X17422000Y-6960000D01*
X17422000Y-6840000D02*
X17302000Y-6960000D01*
X17422000Y-6900000D02*
G75*
G03*
X17422000Y-6900000I-60000J0D01*
G01*
D19*
X16335000Y-7835000D02*
X16465000Y-7965000D01*
X16465000Y-7835000D02*
X16335000Y-7965000D01*
X16400000Y-7835000D02*
X16400000Y-7965000D01*
X16335000Y-7900000D02*
X16465000Y-7900000D01*
X16835000Y-7835000D02*
X16965000Y-7965000D01*
X16965000Y-7835000D02*
X16835000Y-7965000D01*
X16900000Y-7835000D02*
X16900000Y-7965000D01*
X16835000Y-7900000D02*
X16965000Y-7900000D01*
D20*
X11934500Y-10716020D02*
X12154500Y-10936020D01*
X12154500Y-10716020D02*
X11934500Y-10936020D01*
X12122282Y-10903803D02*
X12122282Y-10748238D01*
X11966717Y-10748238D01*
X11966717Y-10903803D01*
X12122282Y-10903803D01*
X13445500Y-10716020D02*
X13665500Y-10936020D01*
X13665500Y-10716020D02*
X13445500Y-10936020D01*
X13633282Y-10903803D02*
X13633282Y-10748238D01*
X13477717Y-10748238D01*
X13477717Y-10903803D01*
X13633282Y-10903803D01*
D12*
X10250119Y-12317976D02*
X10250119Y-12117976D01*
X10297738Y-12117976D01*
X10326310Y-12127500D01*
X10345357Y-12146548D01*
X10354881Y-12165595D01*
X10364405Y-12203690D01*
X10364405Y-12232262D01*
X10354881Y-12270357D01*
X10345357Y-12289405D01*
X10326310Y-12308452D01*
X10297738Y-12317976D01*
X10250119Y-12317976D01*
X10450119Y-12317976D02*
X10450119Y-12184643D01*
X10450119Y-12222738D02*
X10459643Y-12203690D01*
X10469167Y-12194167D01*
X10488214Y-12184643D01*
X10507262Y-12184643D01*
X10573929Y-12317976D02*
X10573929Y-12184643D01*
X10573929Y-12117976D02*
X10564405Y-12127500D01*
X10573929Y-12137024D01*
X10583452Y-12127500D01*
X10573929Y-12117976D01*
X10573929Y-12137024D01*
X10697738Y-12317976D02*
X10678690Y-12308452D01*
X10669167Y-12289405D01*
X10669167Y-12117976D01*
X10802500Y-12317976D02*
X10783452Y-12308452D01*
X10773929Y-12289405D01*
X10773929Y-12117976D01*
X11031071Y-12317976D02*
X11031071Y-12117976D01*
X11097738Y-12260833D01*
X11164405Y-12117976D01*
X11164405Y-12317976D01*
X11345357Y-12317976D02*
X11345357Y-12213214D01*
X11335833Y-12194167D01*
X11316786Y-12184643D01*
X11278690Y-12184643D01*
X11259643Y-12194167D01*
X11345357Y-12308452D02*
X11326309Y-12317976D01*
X11278690Y-12317976D01*
X11259643Y-12308452D01*
X11250119Y-12289405D01*
X11250119Y-12270357D01*
X11259643Y-12251309D01*
X11278690Y-12241786D01*
X11326309Y-12241786D01*
X11345357Y-12232262D01*
X11440595Y-12184643D02*
X11440595Y-12384643D01*
X11440595Y-12194167D02*
X11459643Y-12184643D01*
X11497738Y-12184643D01*
X11516786Y-12194167D01*
X11526309Y-12203690D01*
X11535833Y-12222738D01*
X11535833Y-12279881D01*
X11526309Y-12298928D01*
X11516786Y-12308452D01*
X11497738Y-12317976D01*
X11459643Y-12317976D01*
X11440595Y-12308452D01*
X11621548Y-12298928D02*
X11631071Y-12308452D01*
X11621548Y-12317976D01*
X11612024Y-12308452D01*
X11621548Y-12298928D01*
X11621548Y-12317976D01*
X11621548Y-12194167D02*
X11631071Y-12203690D01*
X11621548Y-12213214D01*
X11612024Y-12203690D01*
X11621548Y-12194167D01*
X11621548Y-12213214D01*
D13*
X9922500Y-12612500D02*
X9992500Y-12682500D01*
X9992500Y-12612500D02*
X9922500Y-12682500D01*
D12*
X10288214Y-12537976D02*
X10307262Y-12537976D01*
X10326310Y-12547500D01*
X10335833Y-12557024D01*
X10345357Y-12576071D01*
X10354881Y-12614167D01*
X10354881Y-12661786D01*
X10345357Y-12699881D01*
X10335833Y-12718928D01*
X10326310Y-12728452D01*
X10307262Y-12737976D01*
X10288214Y-12737976D01*
X10269167Y-12728452D01*
X10259643Y-12718928D01*
X10250119Y-12699881D01*
X10240595Y-12661786D01*
X10240595Y-12614167D01*
X10250119Y-12576071D01*
X10259643Y-12557024D01*
X10269167Y-12547500D01*
X10288214Y-12537976D01*
X10440595Y-12718928D02*
X10450119Y-12728452D01*
X10440595Y-12737976D01*
X10431071Y-12728452D01*
X10440595Y-12718928D01*
X10440595Y-12737976D01*
X10516786Y-12537976D02*
X10650119Y-12537976D01*
X10564405Y-12737976D01*
X10764405Y-12537976D02*
X10783452Y-12537976D01*
X10802500Y-12547500D01*
X10812024Y-12557024D01*
X10821548Y-12576071D01*
X10831071Y-12614167D01*
X10831071Y-12661786D01*
X10821548Y-12699881D01*
X10812024Y-12718928D01*
X10802500Y-12728452D01*
X10783452Y-12737976D01*
X10764405Y-12737976D01*
X10745357Y-12728452D01*
X10735833Y-12718928D01*
X10726310Y-12699881D01*
X10716786Y-12661786D01*
X10716786Y-12614167D01*
X10726310Y-12576071D01*
X10735833Y-12557024D01*
X10745357Y-12547500D01*
X10764405Y-12537976D01*
X10954881Y-12537976D02*
X10973929Y-12537976D01*
X10992976Y-12547500D01*
X11002500Y-12557024D01*
X11012024Y-12576071D01*
X11021548Y-12614167D01*
X11021548Y-12661786D01*
X11012024Y-12699881D01*
X11002500Y-12718928D01*
X10992976Y-12728452D01*
X10973929Y-12737976D01*
X10954881Y-12737976D01*
X10935833Y-12728452D01*
X10926310Y-12718928D01*
X10916786Y-12699881D01*
X10907262Y-12661786D01*
X10907262Y-12614167D01*
X10916786Y-12576071D01*
X10926310Y-12557024D01*
X10935833Y-12547500D01*
X10954881Y-12537976D01*
X11107262Y-12737976D02*
X11107262Y-12604643D01*
X11107262Y-12623690D02*
X11116786Y-12614167D01*
X11135833Y-12604643D01*
X11164405Y-12604643D01*
X11183452Y-12614167D01*
X11192976Y-12633214D01*
X11192976Y-12737976D01*
X11192976Y-12633214D02*
X11202500Y-12614167D01*
X11221548Y-12604643D01*
X11250119Y-12604643D01*
X11269167Y-12614167D01*
X11278690Y-12633214D01*
X11278690Y-12737976D01*
X11373928Y-12737976D02*
X11373928Y-12604643D01*
X11373928Y-12623690D02*
X11383452Y-12614167D01*
X11402500Y-12604643D01*
X11431071Y-12604643D01*
X11450119Y-12614167D01*
X11459643Y-12633214D01*
X11459643Y-12737976D01*
X11459643Y-12633214D02*
X11469167Y-12614167D01*
X11488214Y-12604643D01*
X11516786Y-12604643D01*
X11535833Y-12614167D01*
X11545357Y-12633214D01*
X11545357Y-12737976D01*
X11935833Y-12528452D02*
X11764405Y-12785595D01*
X12192976Y-12537976D02*
X12212024Y-12537976D01*
X12231071Y-12547500D01*
X12240595Y-12557024D01*
X12250119Y-12576071D01*
X12259643Y-12614167D01*
X12259643Y-12661786D01*
X12250119Y-12699881D01*
X12240595Y-12718928D01*
X12231071Y-12728452D01*
X12212024Y-12737976D01*
X12192976Y-12737976D01*
X12173928Y-12728452D01*
X12164405Y-12718928D01*
X12154881Y-12699881D01*
X12145357Y-12661786D01*
X12145357Y-12614167D01*
X12154881Y-12576071D01*
X12164405Y-12557024D01*
X12173928Y-12547500D01*
X12192976Y-12537976D01*
X12345357Y-12718928D02*
X12354881Y-12728452D01*
X12345357Y-12737976D01*
X12335833Y-12728452D01*
X12345357Y-12718928D01*
X12345357Y-12737976D01*
X12478690Y-12537976D02*
X12497738Y-12537976D01*
X12516786Y-12547500D01*
X12526309Y-12557024D01*
X12535833Y-12576071D01*
X12545357Y-12614167D01*
X12545357Y-12661786D01*
X12535833Y-12699881D01*
X12526309Y-12718928D01*
X12516786Y-12728452D01*
X12497738Y-12737976D01*
X12478690Y-12737976D01*
X12459643Y-12728452D01*
X12450119Y-12718928D01*
X12440595Y-12699881D01*
X12431071Y-12661786D01*
X12431071Y-12614167D01*
X12440595Y-12576071D01*
X12450119Y-12557024D01*
X12459643Y-12547500D01*
X12478690Y-12537976D01*
X12621548Y-12557024D02*
X12631071Y-12547500D01*
X12650119Y-12537976D01*
X12697738Y-12537976D01*
X12716786Y-12547500D01*
X12726309Y-12557024D01*
X12735833Y-12576071D01*
X12735833Y-12595119D01*
X12726309Y-12623690D01*
X12612024Y-12737976D01*
X12735833Y-12737976D01*
X12802500Y-12537976D02*
X12935833Y-12537976D01*
X12850119Y-12737976D01*
X13097738Y-12537976D02*
X13059643Y-12537976D01*
X13040595Y-12547500D01*
X13031071Y-12557024D01*
X13012024Y-12585595D01*
X13002500Y-12623690D01*
X13002500Y-12699881D01*
X13012024Y-12718928D01*
X13021548Y-12728452D01*
X13040595Y-12737976D01*
X13078690Y-12737976D01*
X13097738Y-12728452D01*
X13107262Y-12718928D01*
X13116786Y-12699881D01*
X13116786Y-12652262D01*
X13107262Y-12633214D01*
X13097738Y-12623690D01*
X13078690Y-12614167D01*
X13040595Y-12614167D01*
X13021548Y-12623690D01*
X13012024Y-12633214D01*
X13002500Y-12652262D01*
X13192976Y-12537976D02*
X13192976Y-12576071D01*
X13269167Y-12537976D02*
X13269167Y-12576071D01*
X13564405Y-12814167D02*
X13554881Y-12804643D01*
X13535833Y-12776071D01*
X13526309Y-12757024D01*
X13516786Y-12728452D01*
X13507262Y-12680833D01*
X13507262Y-12642738D01*
X13516786Y-12595119D01*
X13526309Y-12566548D01*
X13535833Y-12547500D01*
X13554881Y-12518928D01*
X13564405Y-12509405D01*
X13745357Y-12737976D02*
X13631071Y-12737976D01*
X13688214Y-12737976D02*
X13688214Y-12537976D01*
X13669167Y-12566548D01*
X13650119Y-12585595D01*
X13631071Y-12595119D01*
X13821548Y-12557024D02*
X13831071Y-12547500D01*
X13850119Y-12537976D01*
X13897738Y-12537976D01*
X13916786Y-12547500D01*
X13926309Y-12557024D01*
X13935833Y-12576071D01*
X13935833Y-12595119D01*
X13926309Y-12623690D01*
X13812024Y-12737976D01*
X13935833Y-12737976D01*
X14173928Y-12737976D02*
X14173928Y-12537976D01*
X14259643Y-12737976D02*
X14259643Y-12633214D01*
X14250119Y-12614167D01*
X14231071Y-12604643D01*
X14202500Y-12604643D01*
X14183452Y-12614167D01*
X14173928Y-12623690D01*
X14383452Y-12737976D02*
X14364405Y-12728452D01*
X14354881Y-12718928D01*
X14345357Y-12699881D01*
X14345357Y-12642738D01*
X14354881Y-12623690D01*
X14364405Y-12614167D01*
X14383452Y-12604643D01*
X14412024Y-12604643D01*
X14431071Y-12614167D01*
X14440595Y-12623690D01*
X14450119Y-12642738D01*
X14450119Y-12699881D01*
X14440595Y-12718928D01*
X14431071Y-12728452D01*
X14412024Y-12737976D01*
X14383452Y-12737976D01*
X14564405Y-12737976D02*
X14545357Y-12728452D01*
X14535833Y-12709405D01*
X14535833Y-12537976D01*
X14716786Y-12728452D02*
X14697738Y-12737976D01*
X14659643Y-12737976D01*
X14640595Y-12728452D01*
X14631071Y-12709405D01*
X14631071Y-12633214D01*
X14640595Y-12614167D01*
X14659643Y-12604643D01*
X14697738Y-12604643D01*
X14716786Y-12614167D01*
X14726309Y-12633214D01*
X14726309Y-12652262D01*
X14631071Y-12671309D01*
X14802500Y-12728452D02*
X14821548Y-12737976D01*
X14859643Y-12737976D01*
X14878690Y-12728452D01*
X14888214Y-12709405D01*
X14888214Y-12699881D01*
X14878690Y-12680833D01*
X14859643Y-12671309D01*
X14831071Y-12671309D01*
X14812024Y-12661786D01*
X14802500Y-12642738D01*
X14802500Y-12633214D01*
X14812024Y-12614167D01*
X14831071Y-12604643D01*
X14859643Y-12604643D01*
X14878690Y-12614167D01*
X14954881Y-12814167D02*
X14964405Y-12804643D01*
X14983452Y-12776071D01*
X14992976Y-12757024D01*
X15002500Y-12728452D01*
X15012024Y-12680833D01*
X15012024Y-12642738D01*
X15002500Y-12595119D01*
X14992976Y-12566548D01*
X14983452Y-12547500D01*
X14964405Y-12518928D01*
X14954881Y-12509405D01*
D14*
X9992500Y-12911500D02*
G75*
G03*
X9992500Y-12911500I-37500J0D01*
G01*
D12*
X10288214Y-12801976D02*
X10307262Y-12801976D01*
X10326310Y-12811500D01*
X10335833Y-12821024D01*
X10345357Y-12840071D01*
X10354881Y-12878167D01*
X10354881Y-12925786D01*
X10345357Y-12963881D01*
X10335833Y-12982928D01*
X10326310Y-12992452D01*
X10307262Y-13001976D01*
X10288214Y-13001976D01*
X10269167Y-12992452D01*
X10259643Y-12982928D01*
X10250119Y-12963881D01*
X10240595Y-12925786D01*
X10240595Y-12878167D01*
X10250119Y-12840071D01*
X10259643Y-12821024D01*
X10269167Y-12811500D01*
X10288214Y-12801976D01*
X10440595Y-12982928D02*
X10450119Y-12992452D01*
X10440595Y-13001976D01*
X10431071Y-12992452D01*
X10440595Y-12982928D01*
X10440595Y-13001976D01*
X10516786Y-12801976D02*
X10650119Y-12801976D01*
X10564405Y-13001976D01*
X10821548Y-12801976D02*
X10726310Y-12801976D01*
X10716786Y-12897214D01*
X10726310Y-12887690D01*
X10745357Y-12878167D01*
X10792976Y-12878167D01*
X10812024Y-12887690D01*
X10821548Y-12897214D01*
X10831071Y-12916262D01*
X10831071Y-12963881D01*
X10821548Y-12982928D01*
X10812024Y-12992452D01*
X10792976Y-13001976D01*
X10745357Y-13001976D01*
X10726310Y-12992452D01*
X10716786Y-12982928D01*
X10954881Y-12801976D02*
X10973929Y-12801976D01*
X10992976Y-12811500D01*
X11002500Y-12821024D01*
X11012024Y-12840071D01*
X11021548Y-12878167D01*
X11021548Y-12925786D01*
X11012024Y-12963881D01*
X11002500Y-12982928D01*
X10992976Y-12992452D01*
X10973929Y-13001976D01*
X10954881Y-13001976D01*
X10935833Y-12992452D01*
X10926310Y-12982928D01*
X10916786Y-12963881D01*
X10907262Y-12925786D01*
X10907262Y-12878167D01*
X10916786Y-12840071D01*
X10926310Y-12821024D01*
X10935833Y-12811500D01*
X10954881Y-12801976D01*
X11107262Y-13001976D02*
X11107262Y-12868643D01*
X11107262Y-12887690D02*
X11116786Y-12878167D01*
X11135833Y-12868643D01*
X11164405Y-12868643D01*
X11183452Y-12878167D01*
X11192976Y-12897214D01*
X11192976Y-13001976D01*
X11192976Y-12897214D02*
X11202500Y-12878167D01*
X11221548Y-12868643D01*
X11250119Y-12868643D01*
X11269167Y-12878167D01*
X11278690Y-12897214D01*
X11278690Y-13001976D01*
X11373928Y-13001976D02*
X11373928Y-12868643D01*
X11373928Y-12887690D02*
X11383452Y-12878167D01*
X11402500Y-12868643D01*
X11431071Y-12868643D01*
X11450119Y-12878167D01*
X11459643Y-12897214D01*
X11459643Y-13001976D01*
X11459643Y-12897214D02*
X11469167Y-12878167D01*
X11488214Y-12868643D01*
X11516786Y-12868643D01*
X11535833Y-12878167D01*
X11545357Y-12897214D01*
X11545357Y-13001976D01*
X11935833Y-12792452D02*
X11764405Y-13049595D01*
X12192976Y-12801976D02*
X12212024Y-12801976D01*
X12231071Y-12811500D01*
X12240595Y-12821024D01*
X12250119Y-12840071D01*
X12259643Y-12878167D01*
X12259643Y-12925786D01*
X12250119Y-12963881D01*
X12240595Y-12982928D01*
X12231071Y-12992452D01*
X12212024Y-13001976D01*
X12192976Y-13001976D01*
X12173928Y-12992452D01*
X12164405Y-12982928D01*
X12154881Y-12963881D01*
X12145357Y-12925786D01*
X12145357Y-12878167D01*
X12154881Y-12840071D01*
X12164405Y-12821024D01*
X12173928Y-12811500D01*
X12192976Y-12801976D01*
X12345357Y-12982928D02*
X12354881Y-12992452D01*
X12345357Y-13001976D01*
X12335833Y-12992452D01*
X12345357Y-12982928D01*
X12345357Y-13001976D01*
X12478690Y-12801976D02*
X12497738Y-12801976D01*
X12516786Y-12811500D01*
X12526309Y-12821024D01*
X12535833Y-12840071D01*
X12545357Y-12878167D01*
X12545357Y-12925786D01*
X12535833Y-12963881D01*
X12526309Y-12982928D01*
X12516786Y-12992452D01*
X12497738Y-13001976D01*
X12478690Y-13001976D01*
X12459643Y-12992452D01*
X12450119Y-12982928D01*
X12440595Y-12963881D01*
X12431071Y-12925786D01*
X12431071Y-12878167D01*
X12440595Y-12840071D01*
X12450119Y-12821024D01*
X12459643Y-12811500D01*
X12478690Y-12801976D01*
X12621548Y-12821024D02*
X12631071Y-12811500D01*
X12650119Y-12801976D01*
X12697738Y-12801976D01*
X12716786Y-12811500D01*
X12726309Y-12821024D01*
X12735833Y-12840071D01*
X12735833Y-12859119D01*
X12726309Y-12887690D01*
X12612024Y-13001976D01*
X12735833Y-13001976D01*
X12831071Y-13001976D02*
X12869167Y-13001976D01*
X12888214Y-12992452D01*
X12897738Y-12982928D01*
X12916786Y-12954357D01*
X12926309Y-12916262D01*
X12926309Y-12840071D01*
X12916786Y-12821024D01*
X12907262Y-12811500D01*
X12888214Y-12801976D01*
X12850119Y-12801976D01*
X12831071Y-12811500D01*
X12821548Y-12821024D01*
X12812024Y-12840071D01*
X12812024Y-12887690D01*
X12821548Y-12906738D01*
X12831071Y-12916262D01*
X12850119Y-12925786D01*
X12888214Y-12925786D01*
X12907262Y-12916262D01*
X12916786Y-12906738D01*
X12926309Y-12887690D01*
X13107262Y-12801976D02*
X13012024Y-12801976D01*
X13002500Y-12897214D01*
X13012024Y-12887690D01*
X13031071Y-12878167D01*
X13078690Y-12878167D01*
X13097738Y-12887690D01*
X13107262Y-12897214D01*
X13116786Y-12916262D01*
X13116786Y-12963881D01*
X13107262Y-12982928D01*
X13097738Y-12992452D01*
X13078690Y-13001976D01*
X13031071Y-13001976D01*
X13012024Y-12992452D01*
X13002500Y-12982928D01*
X13192976Y-12801976D02*
X13192976Y-12840071D01*
X13269167Y-12801976D02*
X13269167Y-12840071D01*
X13564405Y-13078167D02*
X13554881Y-13068643D01*
X13535833Y-13040071D01*
X13526309Y-13021024D01*
X13516786Y-12992452D01*
X13507262Y-12944833D01*
X13507262Y-12906738D01*
X13516786Y-12859119D01*
X13526309Y-12830548D01*
X13535833Y-12811500D01*
X13554881Y-12782928D01*
X13564405Y-12773405D01*
X13669167Y-12887690D02*
X13650119Y-12878167D01*
X13640595Y-12868643D01*
X13631071Y-12849595D01*
X13631071Y-12840071D01*
X13640595Y-12821024D01*
X13650119Y-12811500D01*
X13669167Y-12801976D01*
X13707262Y-12801976D01*
X13726309Y-12811500D01*
X13735833Y-12821024D01*
X13745357Y-12840071D01*
X13745357Y-12849595D01*
X13735833Y-12868643D01*
X13726309Y-12878167D01*
X13707262Y-12887690D01*
X13669167Y-12887690D01*
X13650119Y-12897214D01*
X13640595Y-12906738D01*
X13631071Y-12925786D01*
X13631071Y-12963881D01*
X13640595Y-12982928D01*
X13650119Y-12992452D01*
X13669167Y-13001976D01*
X13707262Y-13001976D01*
X13726309Y-12992452D01*
X13735833Y-12982928D01*
X13745357Y-12963881D01*
X13745357Y-12925786D01*
X13735833Y-12906738D01*
X13726309Y-12897214D01*
X13707262Y-12887690D01*
X13983452Y-13001976D02*
X13983452Y-12801976D01*
X14069167Y-13001976D02*
X14069167Y-12897214D01*
X14059643Y-12878167D01*
X14040595Y-12868643D01*
X14012024Y-12868643D01*
X13992976Y-12878167D01*
X13983452Y-12887690D01*
X14192976Y-13001976D02*
X14173928Y-12992452D01*
X14164405Y-12982928D01*
X14154881Y-12963881D01*
X14154881Y-12906738D01*
X14164405Y-12887690D01*
X14173928Y-12878167D01*
X14192976Y-12868643D01*
X14221548Y-12868643D01*
X14240595Y-12878167D01*
X14250119Y-12887690D01*
X14259643Y-12906738D01*
X14259643Y-12963881D01*
X14250119Y-12982928D01*
X14240595Y-12992452D01*
X14221548Y-13001976D01*
X14192976Y-13001976D01*
X14373928Y-13001976D02*
X14354881Y-12992452D01*
X14345357Y-12973405D01*
X14345357Y-12801976D01*
X14526309Y-12992452D02*
X14507262Y-13001976D01*
X14469167Y-13001976D01*
X14450119Y-12992452D01*
X14440595Y-12973405D01*
X14440595Y-12897214D01*
X14450119Y-12878167D01*
X14469167Y-12868643D01*
X14507262Y-12868643D01*
X14526309Y-12878167D01*
X14535833Y-12897214D01*
X14535833Y-12916262D01*
X14440595Y-12935309D01*
X14612024Y-12992452D02*
X14631071Y-13001976D01*
X14669167Y-13001976D01*
X14688214Y-12992452D01*
X14697738Y-12973405D01*
X14697738Y-12963881D01*
X14688214Y-12944833D01*
X14669167Y-12935309D01*
X14640595Y-12935309D01*
X14621548Y-12925786D01*
X14612024Y-12906738D01*
X14612024Y-12897214D01*
X14621548Y-12878167D01*
X14640595Y-12868643D01*
X14669167Y-12868643D01*
X14688214Y-12878167D01*
X14764405Y-13078167D02*
X14773928Y-13068643D01*
X14792976Y-13040071D01*
X14802500Y-13021024D01*
X14812024Y-12992452D01*
X14821548Y-12944833D01*
X14821548Y-12906738D01*
X14812024Y-12859119D01*
X14802500Y-12830548D01*
X14792976Y-12811500D01*
X14773928Y-12782928D01*
X14764405Y-12773405D01*
D15*
X9952500Y-13135500D02*
X9952500Y-13215500D01*
X9912500Y-13175500D02*
X9992500Y-13175500D01*
D12*
X10288214Y-13065976D02*
X10307262Y-13065976D01*
X10326310Y-13075500D01*
X10335833Y-13085024D01*
X10345357Y-13104071D01*
X10354881Y-13142167D01*
X10354881Y-13189786D01*
X10345357Y-13227881D01*
X10335833Y-13246928D01*
X10326310Y-13256452D01*
X10307262Y-13265976D01*
X10288214Y-13265976D01*
X10269167Y-13256452D01*
X10259643Y-13246928D01*
X10250119Y-13227881D01*
X10240595Y-13189786D01*
X10240595Y-13142167D01*
X10250119Y-13104071D01*
X10259643Y-13085024D01*
X10269167Y-13075500D01*
X10288214Y-13065976D01*
X10440595Y-13246928D02*
X10450119Y-13256452D01*
X10440595Y-13265976D01*
X10431071Y-13256452D01*
X10440595Y-13246928D01*
X10440595Y-13265976D01*
X10564405Y-13151690D02*
X10545357Y-13142167D01*
X10535833Y-13132643D01*
X10526310Y-13113595D01*
X10526310Y-13104071D01*
X10535833Y-13085024D01*
X10545357Y-13075500D01*
X10564405Y-13065976D01*
X10602500Y-13065976D01*
X10621548Y-13075500D01*
X10631071Y-13085024D01*
X10640595Y-13104071D01*
X10640595Y-13113595D01*
X10631071Y-13132643D01*
X10621548Y-13142167D01*
X10602500Y-13151690D01*
X10564405Y-13151690D01*
X10545357Y-13161214D01*
X10535833Y-13170738D01*
X10526310Y-13189786D01*
X10526310Y-13227881D01*
X10535833Y-13246928D01*
X10545357Y-13256452D01*
X10564405Y-13265976D01*
X10602500Y-13265976D01*
X10621548Y-13256452D01*
X10631071Y-13246928D01*
X10640595Y-13227881D01*
X10640595Y-13189786D01*
X10631071Y-13170738D01*
X10621548Y-13161214D01*
X10602500Y-13151690D01*
X10764405Y-13065976D02*
X10783452Y-13065976D01*
X10802500Y-13075500D01*
X10812024Y-13085024D01*
X10821548Y-13104071D01*
X10831071Y-13142167D01*
X10831071Y-13189786D01*
X10821548Y-13227881D01*
X10812024Y-13246928D01*
X10802500Y-13256452D01*
X10783452Y-13265976D01*
X10764405Y-13265976D01*
X10745357Y-13256452D01*
X10735833Y-13246928D01*
X10726310Y-13227881D01*
X10716786Y-13189786D01*
X10716786Y-13142167D01*
X10726310Y-13104071D01*
X10735833Y-13085024D01*
X10745357Y-13075500D01*
X10764405Y-13065976D01*
X10954881Y-13065976D02*
X10973929Y-13065976D01*
X10992976Y-13075500D01*
X11002500Y-13085024D01*
X11012024Y-13104071D01*
X11021548Y-13142167D01*
X11021548Y-13189786D01*
X11012024Y-13227881D01*
X11002500Y-13246928D01*
X10992976Y-13256452D01*
X10973929Y-13265976D01*
X10954881Y-13265976D01*
X10935833Y-13256452D01*
X10926310Y-13246928D01*
X10916786Y-13227881D01*
X10907262Y-13189786D01*
X10907262Y-13142167D01*
X10916786Y-13104071D01*
X10926310Y-13085024D01*
X10935833Y-13075500D01*
X10954881Y-13065976D01*
X11107262Y-13265976D02*
X11107262Y-13132643D01*
X11107262Y-13151690D02*
X11116786Y-13142167D01*
X11135833Y-13132643D01*
X11164405Y-13132643D01*
X11183452Y-13142167D01*
X11192976Y-13161214D01*
X11192976Y-13265976D01*
X11192976Y-13161214D02*
X11202500Y-13142167D01*
X11221548Y-13132643D01*
X11250119Y-13132643D01*
X11269167Y-13142167D01*
X11278690Y-13161214D01*
X11278690Y-13265976D01*
X11373928Y-13265976D02*
X11373928Y-13132643D01*
X11373928Y-13151690D02*
X11383452Y-13142167D01*
X11402500Y-13132643D01*
X11431071Y-13132643D01*
X11450119Y-13142167D01*
X11459643Y-13161214D01*
X11459643Y-13265976D01*
X11459643Y-13161214D02*
X11469167Y-13142167D01*
X11488214Y-13132643D01*
X11516786Y-13132643D01*
X11535833Y-13142167D01*
X11545357Y-13161214D01*
X11545357Y-13265976D01*
X11935833Y-13056452D02*
X11764405Y-13313595D01*
X12192976Y-13065976D02*
X12212024Y-13065976D01*
X12231071Y-13075500D01*
X12240595Y-13085024D01*
X12250119Y-13104071D01*
X12259643Y-13142167D01*
X12259643Y-13189786D01*
X12250119Y-13227881D01*
X12240595Y-13246928D01*
X12231071Y-13256452D01*
X12212024Y-13265976D01*
X12192976Y-13265976D01*
X12173928Y-13256452D01*
X12164405Y-13246928D01*
X12154881Y-13227881D01*
X12145357Y-13189786D01*
X12145357Y-13142167D01*
X12154881Y-13104071D01*
X12164405Y-13085024D01*
X12173928Y-13075500D01*
X12192976Y-13065976D01*
X12345357Y-13246928D02*
X12354881Y-13256452D01*
X12345357Y-13265976D01*
X12335833Y-13256452D01*
X12345357Y-13246928D01*
X12345357Y-13265976D01*
X12478690Y-13065976D02*
X12497738Y-13065976D01*
X12516786Y-13075500D01*
X12526309Y-13085024D01*
X12535833Y-13104071D01*
X12545357Y-13142167D01*
X12545357Y-13189786D01*
X12535833Y-13227881D01*
X12526309Y-13246928D01*
X12516786Y-13256452D01*
X12497738Y-13265976D01*
X12478690Y-13265976D01*
X12459643Y-13256452D01*
X12450119Y-13246928D01*
X12440595Y-13227881D01*
X12431071Y-13189786D01*
X12431071Y-13142167D01*
X12440595Y-13104071D01*
X12450119Y-13085024D01*
X12459643Y-13075500D01*
X12478690Y-13065976D01*
X12612024Y-13065976D02*
X12735833Y-13065976D01*
X12669167Y-13142167D01*
X12697738Y-13142167D01*
X12716786Y-13151690D01*
X12726309Y-13161214D01*
X12735833Y-13180262D01*
X12735833Y-13227881D01*
X12726309Y-13246928D01*
X12716786Y-13256452D01*
X12697738Y-13265976D01*
X12640595Y-13265976D01*
X12621548Y-13256452D01*
X12612024Y-13246928D01*
X12926309Y-13265976D02*
X12812024Y-13265976D01*
X12869167Y-13265976D02*
X12869167Y-13065976D01*
X12850119Y-13094548D01*
X12831071Y-13113595D01*
X12812024Y-13123119D01*
X13107262Y-13065976D02*
X13012024Y-13065976D01*
X13002500Y-13161214D01*
X13012024Y-13151690D01*
X13031071Y-13142167D01*
X13078690Y-13142167D01*
X13097738Y-13151690D01*
X13107262Y-13161214D01*
X13116786Y-13180262D01*
X13116786Y-13227881D01*
X13107262Y-13246928D01*
X13097738Y-13256452D01*
X13078690Y-13265976D01*
X13031071Y-13265976D01*
X13012024Y-13256452D01*
X13002500Y-13246928D01*
X13192976Y-13065976D02*
X13192976Y-13104071D01*
X13269167Y-13065976D02*
X13269167Y-13104071D01*
X13564405Y-13342167D02*
X13554881Y-13332643D01*
X13535833Y-13304071D01*
X13526309Y-13285024D01*
X13516786Y-13256452D01*
X13507262Y-13208833D01*
X13507262Y-13170738D01*
X13516786Y-13123119D01*
X13526309Y-13094548D01*
X13535833Y-13075500D01*
X13554881Y-13046928D01*
X13564405Y-13037405D01*
X13735833Y-13065976D02*
X13640595Y-13065976D01*
X13631071Y-13161214D01*
X13640595Y-13151690D01*
X13659643Y-13142167D01*
X13707262Y-13142167D01*
X13726309Y-13151690D01*
X13735833Y-13161214D01*
X13745357Y-13180262D01*
X13745357Y-13227881D01*
X13735833Y-13246928D01*
X13726309Y-13256452D01*
X13707262Y-13265976D01*
X13659643Y-13265976D01*
X13640595Y-13256452D01*
X13631071Y-13246928D01*
X13916786Y-13065976D02*
X13878690Y-13065976D01*
X13859643Y-13075500D01*
X13850119Y-13085024D01*
X13831071Y-13113595D01*
X13821548Y-13151690D01*
X13821548Y-13227881D01*
X13831071Y-13246928D01*
X13840595Y-13256452D01*
X13859643Y-13265976D01*
X13897738Y-13265976D01*
X13916786Y-13256452D01*
X13926309Y-13246928D01*
X13935833Y-13227881D01*
X13935833Y-13180262D01*
X13926309Y-13161214D01*
X13916786Y-13151690D01*
X13897738Y-13142167D01*
X13859643Y-13142167D01*
X13840595Y-13151690D01*
X13831071Y-13161214D01*
X13821548Y-13180262D01*
X14173928Y-13265976D02*
X14173928Y-13065976D01*
X14259643Y-13265976D02*
X14259643Y-13161214D01*
X14250119Y-13142167D01*
X14231071Y-13132643D01*
X14202500Y-13132643D01*
X14183452Y-13142167D01*
X14173928Y-13151690D01*
X14383452Y-13265976D02*
X14364405Y-13256452D01*
X14354881Y-13246928D01*
X14345357Y-13227881D01*
X14345357Y-13170738D01*
X14354881Y-13151690D01*
X14364405Y-13142167D01*
X14383452Y-13132643D01*
X14412024Y-13132643D01*
X14431071Y-13142167D01*
X14440595Y-13151690D01*
X14450119Y-13170738D01*
X14450119Y-13227881D01*
X14440595Y-13246928D01*
X14431071Y-13256452D01*
X14412024Y-13265976D01*
X14383452Y-13265976D01*
X14564405Y-13265976D02*
X14545357Y-13256452D01*
X14535833Y-13237405D01*
X14535833Y-13065976D01*
X14716786Y-13256452D02*
X14697738Y-13265976D01*
X14659643Y-13265976D01*
X14640595Y-13256452D01*
X14631071Y-13237405D01*
X14631071Y-13161214D01*
X14640595Y-13142167D01*
X14659643Y-13132643D01*
X14697738Y-13132643D01*
X14716786Y-13142167D01*
X14726309Y-13161214D01*
X14726309Y-13180262D01*
X14631071Y-13199309D01*
X14802500Y-13256452D02*
X14821548Y-13265976D01*
X14859643Y-13265976D01*
X14878690Y-13256452D01*
X14888214Y-13237405D01*
X14888214Y-13227881D01*
X14878690Y-13208833D01*
X14859643Y-13199309D01*
X14831071Y-13199309D01*
X14812024Y-13189786D01*
X14802500Y-13170738D01*
X14802500Y-13161214D01*
X14812024Y-13142167D01*
X14831071Y-13132643D01*
X14859643Y-13132643D01*
X14878690Y-13142167D01*
X14954881Y-13342167D02*
X14964405Y-13332643D01*
X14983452Y-13304071D01*
X14992976Y-13285024D01*
X15002500Y-13256452D01*
X15012024Y-13208833D01*
X15012024Y-13170738D01*
X15002500Y-13123119D01*
X14992976Y-13094548D01*
X14983452Y-13075500D01*
X14964405Y-13046928D01*
X14954881Y-13037405D01*
D16*
X9977856Y-13474856D02*
X9977856Y-13404144D01*
X9907144Y-13404144D01*
X9907144Y-13474856D01*
X9977856Y-13474856D01*
D12*
X10354881Y-13529976D02*
X10240595Y-13529976D01*
X10297738Y-13529976D02*
X10297738Y-13329976D01*
X10278690Y-13358548D01*
X10259643Y-13377595D01*
X10240595Y-13387119D01*
X10440595Y-13510928D02*
X10450119Y-13520452D01*
X10440595Y-13529976D01*
X10431071Y-13520452D01*
X10440595Y-13510928D01*
X10440595Y-13529976D01*
X10573929Y-13329976D02*
X10592976Y-13329976D01*
X10612024Y-13339500D01*
X10621548Y-13349024D01*
X10631071Y-13368071D01*
X10640595Y-13406167D01*
X10640595Y-13453786D01*
X10631071Y-13491881D01*
X10621548Y-13510928D01*
X10612024Y-13520452D01*
X10592976Y-13529976D01*
X10573929Y-13529976D01*
X10554881Y-13520452D01*
X10545357Y-13510928D01*
X10535833Y-13491881D01*
X10526310Y-13453786D01*
X10526310Y-13406167D01*
X10535833Y-13368071D01*
X10545357Y-13349024D01*
X10554881Y-13339500D01*
X10573929Y-13329976D01*
X10764405Y-13329976D02*
X10783452Y-13329976D01*
X10802500Y-13339500D01*
X10812024Y-13349024D01*
X10821548Y-13368071D01*
X10831071Y-13406167D01*
X10831071Y-13453786D01*
X10821548Y-13491881D01*
X10812024Y-13510928D01*
X10802500Y-13520452D01*
X10783452Y-13529976D01*
X10764405Y-13529976D01*
X10745357Y-13520452D01*
X10735833Y-13510928D01*
X10726310Y-13491881D01*
X10716786Y-13453786D01*
X10716786Y-13406167D01*
X10726310Y-13368071D01*
X10735833Y-13349024D01*
X10745357Y-13339500D01*
X10764405Y-13329976D01*
X10954881Y-13329976D02*
X10973929Y-13329976D01*
X10992976Y-13339500D01*
X11002500Y-13349024D01*
X11012024Y-13368071D01*
X11021548Y-13406167D01*
X11021548Y-13453786D01*
X11012024Y-13491881D01*
X11002500Y-13510928D01*
X10992976Y-13520452D01*
X10973929Y-13529976D01*
X10954881Y-13529976D01*
X10935833Y-13520452D01*
X10926310Y-13510928D01*
X10916786Y-13491881D01*
X10907262Y-13453786D01*
X10907262Y-13406167D01*
X10916786Y-13368071D01*
X10926310Y-13349024D01*
X10935833Y-13339500D01*
X10954881Y-13329976D01*
X11107262Y-13529976D02*
X11107262Y-13396643D01*
X11107262Y-13415690D02*
X11116786Y-13406167D01*
X11135833Y-13396643D01*
X11164405Y-13396643D01*
X11183452Y-13406167D01*
X11192976Y-13425214D01*
X11192976Y-13529976D01*
X11192976Y-13425214D02*
X11202500Y-13406167D01*
X11221548Y-13396643D01*
X11250119Y-13396643D01*
X11269167Y-13406167D01*
X11278690Y-13425214D01*
X11278690Y-13529976D01*
X11373928Y-13529976D02*
X11373928Y-13396643D01*
X11373928Y-13415690D02*
X11383452Y-13406167D01*
X11402500Y-13396643D01*
X11431071Y-13396643D01*
X11450119Y-13406167D01*
X11459643Y-13425214D01*
X11459643Y-13529976D01*
X11459643Y-13425214D02*
X11469167Y-13406167D01*
X11488214Y-13396643D01*
X11516786Y-13396643D01*
X11535833Y-13406167D01*
X11545357Y-13425214D01*
X11545357Y-13529976D01*
X11935833Y-13320452D02*
X11764405Y-13577595D01*
X12192976Y-13329976D02*
X12212024Y-13329976D01*
X12231071Y-13339500D01*
X12240595Y-13349024D01*
X12250119Y-13368071D01*
X12259643Y-13406167D01*
X12259643Y-13453786D01*
X12250119Y-13491881D01*
X12240595Y-13510928D01*
X12231071Y-13520452D01*
X12212024Y-13529976D01*
X12192976Y-13529976D01*
X12173928Y-13520452D01*
X12164405Y-13510928D01*
X12154881Y-13491881D01*
X12145357Y-13453786D01*
X12145357Y-13406167D01*
X12154881Y-13368071D01*
X12164405Y-13349024D01*
X12173928Y-13339500D01*
X12192976Y-13329976D01*
X12345357Y-13510928D02*
X12354881Y-13520452D01*
X12345357Y-13529976D01*
X12335833Y-13520452D01*
X12345357Y-13510928D01*
X12345357Y-13529976D01*
X12478690Y-13329976D02*
X12497738Y-13329976D01*
X12516786Y-13339500D01*
X12526309Y-13349024D01*
X12535833Y-13368071D01*
X12545357Y-13406167D01*
X12545357Y-13453786D01*
X12535833Y-13491881D01*
X12526309Y-13510928D01*
X12516786Y-13520452D01*
X12497738Y-13529976D01*
X12478690Y-13529976D01*
X12459643Y-13520452D01*
X12450119Y-13510928D01*
X12440595Y-13491881D01*
X12431071Y-13453786D01*
X12431071Y-13406167D01*
X12440595Y-13368071D01*
X12450119Y-13349024D01*
X12459643Y-13339500D01*
X12478690Y-13329976D01*
X12612024Y-13329976D02*
X12735833Y-13329976D01*
X12669167Y-13406167D01*
X12697738Y-13406167D01*
X12716786Y-13415690D01*
X12726309Y-13425214D01*
X12735833Y-13444262D01*
X12735833Y-13491881D01*
X12726309Y-13510928D01*
X12716786Y-13520452D01*
X12697738Y-13529976D01*
X12640595Y-13529976D01*
X12621548Y-13520452D01*
X12612024Y-13510928D01*
X12831071Y-13529976D02*
X12869167Y-13529976D01*
X12888214Y-13520452D01*
X12897738Y-13510928D01*
X12916786Y-13482357D01*
X12926309Y-13444262D01*
X12926309Y-13368071D01*
X12916786Y-13349024D01*
X12907262Y-13339500D01*
X12888214Y-13329976D01*
X12850119Y-13329976D01*
X12831071Y-13339500D01*
X12821548Y-13349024D01*
X12812024Y-13368071D01*
X12812024Y-13415690D01*
X12821548Y-13434738D01*
X12831071Y-13444262D01*
X12850119Y-13453786D01*
X12888214Y-13453786D01*
X12907262Y-13444262D01*
X12916786Y-13434738D01*
X12926309Y-13415690D01*
X13097738Y-13396643D02*
X13097738Y-13529976D01*
X13050119Y-13320452D02*
X13002500Y-13463309D01*
X13126309Y-13463309D01*
X13192976Y-13329976D02*
X13192976Y-13368071D01*
X13269167Y-13329976D02*
X13269167Y-13368071D01*
X13564405Y-13606167D02*
X13554881Y-13596643D01*
X13535833Y-13568071D01*
X13526309Y-13549024D01*
X13516786Y-13520452D01*
X13507262Y-13472833D01*
X13507262Y-13434738D01*
X13516786Y-13387119D01*
X13526309Y-13358548D01*
X13535833Y-13339500D01*
X13554881Y-13310928D01*
X13564405Y-13301405D01*
X13621548Y-13329976D02*
X13745357Y-13329976D01*
X13678690Y-13406167D01*
X13707262Y-13406167D01*
X13726309Y-13415690D01*
X13735833Y-13425214D01*
X13745357Y-13444262D01*
X13745357Y-13491881D01*
X13735833Y-13510928D01*
X13726309Y-13520452D01*
X13707262Y-13529976D01*
X13650119Y-13529976D01*
X13631071Y-13520452D01*
X13621548Y-13510928D01*
X13935833Y-13529976D02*
X13821548Y-13529976D01*
X13878690Y-13529976D02*
X13878690Y-13329976D01*
X13859643Y-13358548D01*
X13840595Y-13377595D01*
X13821548Y-13387119D01*
X14173928Y-13529976D02*
X14173928Y-13329976D01*
X14259643Y-13529976D02*
X14259643Y-13425214D01*
X14250119Y-13406167D01*
X14231071Y-13396643D01*
X14202500Y-13396643D01*
X14183452Y-13406167D01*
X14173928Y-13415690D01*
X14383452Y-13529976D02*
X14364405Y-13520452D01*
X14354881Y-13510928D01*
X14345357Y-13491881D01*
X14345357Y-13434738D01*
X14354881Y-13415690D01*
X14364405Y-13406167D01*
X14383452Y-13396643D01*
X14412024Y-13396643D01*
X14431071Y-13406167D01*
X14440595Y-13415690D01*
X14450119Y-13434738D01*
X14450119Y-13491881D01*
X14440595Y-13510928D01*
X14431071Y-13520452D01*
X14412024Y-13529976D01*
X14383452Y-13529976D01*
X14564405Y-13529976D02*
X14545357Y-13520452D01*
X14535833Y-13501405D01*
X14535833Y-13329976D01*
X14716786Y-13520452D02*
X14697738Y-13529976D01*
X14659643Y-13529976D01*
X14640595Y-13520452D01*
X14631071Y-13501405D01*
X14631071Y-13425214D01*
X14640595Y-13406167D01*
X14659643Y-13396643D01*
X14697738Y-13396643D01*
X14716786Y-13406167D01*
X14726309Y-13425214D01*
X14726309Y-13444262D01*
X14631071Y-13463309D01*
X14802500Y-13520452D02*
X14821548Y-13529976D01*
X14859643Y-13529976D01*
X14878690Y-13520452D01*
X14888214Y-13501405D01*
X14888214Y-13491881D01*
X14878690Y-13472833D01*
X14859643Y-13463309D01*
X14831071Y-13463309D01*
X14812024Y-13453786D01*
X14802500Y-13434738D01*
X14802500Y-13425214D01*
X14812024Y-13406167D01*
X14831071Y-13396643D01*
X14859643Y-13396643D01*
X14878690Y-13406167D01*
X15126309Y-13453786D02*
X15278690Y-13453786D01*
X15202500Y-13529976D02*
X15202500Y-13377595D01*
X15507262Y-13329976D02*
X15631071Y-13329976D01*
X15564405Y-13406167D01*
X15592976Y-13406167D01*
X15612024Y-13415690D01*
X15621548Y-13425214D01*
X15631071Y-13444262D01*
X15631071Y-13491881D01*
X15621548Y-13510928D01*
X15612024Y-13520452D01*
X15592976Y-13529976D01*
X15535833Y-13529976D01*
X15516786Y-13520452D01*
X15507262Y-13510928D01*
X15859643Y-13520452D02*
X15878690Y-13529976D01*
X15916786Y-13529976D01*
X15935833Y-13520452D01*
X15945357Y-13501405D01*
X15945357Y-13491881D01*
X15935833Y-13472833D01*
X15916786Y-13463309D01*
X15888214Y-13463309D01*
X15869167Y-13453786D01*
X15859643Y-13434738D01*
X15859643Y-13425214D01*
X15869167Y-13406167D01*
X15888214Y-13396643D01*
X15916786Y-13396643D01*
X15935833Y-13406167D01*
X16059643Y-13529976D02*
X16040595Y-13520452D01*
X16031071Y-13501405D01*
X16031071Y-13329976D01*
X16164405Y-13529976D02*
X16145357Y-13520452D01*
X16135833Y-13510928D01*
X16126309Y-13491881D01*
X16126309Y-13434738D01*
X16135833Y-13415690D01*
X16145357Y-13406167D01*
X16164405Y-13396643D01*
X16192976Y-13396643D01*
X16212024Y-13406167D01*
X16221548Y-13415690D01*
X16231071Y-13434738D01*
X16231071Y-13491881D01*
X16221548Y-13510928D01*
X16212024Y-13520452D01*
X16192976Y-13529976D01*
X16164405Y-13529976D01*
X16288214Y-13396643D02*
X16364405Y-13396643D01*
X16316786Y-13329976D02*
X16316786Y-13501405D01*
X16326309Y-13520452D01*
X16345357Y-13529976D01*
X16364405Y-13529976D01*
X16421548Y-13520452D02*
X16440595Y-13529976D01*
X16478690Y-13529976D01*
X16497738Y-13520452D01*
X16507262Y-13501405D01*
X16507262Y-13491881D01*
X16497738Y-13472833D01*
X16478690Y-13463309D01*
X16450119Y-13463309D01*
X16431071Y-13453786D01*
X16421548Y-13434738D01*
X16421548Y-13425214D01*
X16431071Y-13406167D01*
X16450119Y-13396643D01*
X16478690Y-13396643D01*
X16497738Y-13406167D01*
X16573928Y-13606167D02*
X16583452Y-13596643D01*
X16602500Y-13568071D01*
X16612024Y-13549024D01*
X16621548Y-13520452D01*
X16631071Y-13472833D01*
X16631071Y-13434738D01*
X16621548Y-13387119D01*
X16612024Y-13358548D01*
X16602500Y-13339500D01*
X16583452Y-13310928D01*
X16573928Y-13301405D01*
D17*
X9937500Y-13758500D02*
X9992500Y-13703500D01*
X9937500Y-13648500D01*
X9882500Y-13703500D01*
X9937500Y-13758500D01*
D12*
X10354881Y-13793976D02*
X10240595Y-13793976D01*
X10297738Y-13793976D02*
X10297738Y-13593976D01*
X10278690Y-13622548D01*
X10259643Y-13641595D01*
X10240595Y-13651119D01*
X10440595Y-13774928D02*
X10450119Y-13784452D01*
X10440595Y-13793976D01*
X10431071Y-13784452D01*
X10440595Y-13774928D01*
X10440595Y-13793976D01*
X10640595Y-13793976D02*
X10526310Y-13793976D01*
X10583452Y-13793976D02*
X10583452Y-13593976D01*
X10564405Y-13622548D01*
X10545357Y-13641595D01*
X10526310Y-13651119D01*
X10764405Y-13593976D02*
X10783452Y-13593976D01*
X10802500Y-13603500D01*
X10812024Y-13613024D01*
X10821548Y-13632071D01*
X10831071Y-13670167D01*
X10831071Y-13717786D01*
X10821548Y-13755881D01*
X10812024Y-13774928D01*
X10802500Y-13784452D01*
X10783452Y-13793976D01*
X10764405Y-13793976D01*
X10745357Y-13784452D01*
X10735833Y-13774928D01*
X10726310Y-13755881D01*
X10716786Y-13717786D01*
X10716786Y-13670167D01*
X10726310Y-13632071D01*
X10735833Y-13613024D01*
X10745357Y-13603500D01*
X10764405Y-13593976D01*
X10954881Y-13593976D02*
X10973929Y-13593976D01*
X10992976Y-13603500D01*
X11002500Y-13613024D01*
X11012024Y-13632071D01*
X11021548Y-13670167D01*
X11021548Y-13717786D01*
X11012024Y-13755881D01*
X11002500Y-13774928D01*
X10992976Y-13784452D01*
X10973929Y-13793976D01*
X10954881Y-13793976D01*
X10935833Y-13784452D01*
X10926310Y-13774928D01*
X10916786Y-13755881D01*
X10907262Y-13717786D01*
X10907262Y-13670167D01*
X10916786Y-13632071D01*
X10926310Y-13613024D01*
X10935833Y-13603500D01*
X10954881Y-13593976D01*
X11107262Y-13793976D02*
X11107262Y-13660643D01*
X11107262Y-13679690D02*
X11116786Y-13670167D01*
X11135833Y-13660643D01*
X11164405Y-13660643D01*
X11183452Y-13670167D01*
X11192976Y-13689214D01*
X11192976Y-13793976D01*
X11192976Y-13689214D02*
X11202500Y-13670167D01*
X11221548Y-13660643D01*
X11250119Y-13660643D01*
X11269167Y-13670167D01*
X11278690Y-13689214D01*
X11278690Y-13793976D01*
X11373928Y-13793976D02*
X11373928Y-13660643D01*
X11373928Y-13679690D02*
X11383452Y-13670167D01*
X11402500Y-13660643D01*
X11431071Y-13660643D01*
X11450119Y-13670167D01*
X11459643Y-13689214D01*
X11459643Y-13793976D01*
X11459643Y-13689214D02*
X11469167Y-13670167D01*
X11488214Y-13660643D01*
X11516786Y-13660643D01*
X11535833Y-13670167D01*
X11545357Y-13689214D01*
X11545357Y-13793976D01*
X11935833Y-13584452D02*
X11764405Y-13841595D01*
X12192976Y-13593976D02*
X12212024Y-13593976D01*
X12231071Y-13603500D01*
X12240595Y-13613024D01*
X12250119Y-13632071D01*
X12259643Y-13670167D01*
X12259643Y-13717786D01*
X12250119Y-13755881D01*
X12240595Y-13774928D01*
X12231071Y-13784452D01*
X12212024Y-13793976D01*
X12192976Y-13793976D01*
X12173928Y-13784452D01*
X12164405Y-13774928D01*
X12154881Y-13755881D01*
X12145357Y-13717786D01*
X12145357Y-13670167D01*
X12154881Y-13632071D01*
X12164405Y-13613024D01*
X12173928Y-13603500D01*
X12192976Y-13593976D01*
X12345357Y-13774928D02*
X12354881Y-13784452D01*
X12345357Y-13793976D01*
X12335833Y-13784452D01*
X12345357Y-13774928D01*
X12345357Y-13793976D01*
X12478690Y-13593976D02*
X12497738Y-13593976D01*
X12516786Y-13603500D01*
X12526309Y-13613024D01*
X12535833Y-13632071D01*
X12545357Y-13670167D01*
X12545357Y-13717786D01*
X12535833Y-13755881D01*
X12526309Y-13774928D01*
X12516786Y-13784452D01*
X12497738Y-13793976D01*
X12478690Y-13793976D01*
X12459643Y-13784452D01*
X12450119Y-13774928D01*
X12440595Y-13755881D01*
X12431071Y-13717786D01*
X12431071Y-13670167D01*
X12440595Y-13632071D01*
X12450119Y-13613024D01*
X12459643Y-13603500D01*
X12478690Y-13593976D01*
X12716786Y-13660643D02*
X12716786Y-13793976D01*
X12669167Y-13584452D02*
X12621548Y-13727309D01*
X12745357Y-13727309D01*
X12802500Y-13593976D02*
X12926309Y-13593976D01*
X12859643Y-13670167D01*
X12888214Y-13670167D01*
X12907262Y-13679690D01*
X12916786Y-13689214D01*
X12926309Y-13708262D01*
X12926309Y-13755881D01*
X12916786Y-13774928D01*
X12907262Y-13784452D01*
X12888214Y-13793976D01*
X12831071Y-13793976D01*
X12812024Y-13784452D01*
X12802500Y-13774928D01*
X12992976Y-13593976D02*
X13116786Y-13593976D01*
X13050119Y-13670167D01*
X13078690Y-13670167D01*
X13097738Y-13679690D01*
X13107262Y-13689214D01*
X13116786Y-13708262D01*
X13116786Y-13755881D01*
X13107262Y-13774928D01*
X13097738Y-13784452D01*
X13078690Y-13793976D01*
X13021548Y-13793976D01*
X13002500Y-13784452D01*
X12992976Y-13774928D01*
X13192976Y-13593976D02*
X13192976Y-13632071D01*
X13269167Y-13593976D02*
X13269167Y-13632071D01*
X13564405Y-13870167D02*
X13554881Y-13860643D01*
X13535833Y-13832071D01*
X13526309Y-13813024D01*
X13516786Y-13784452D01*
X13507262Y-13736833D01*
X13507262Y-13698738D01*
X13516786Y-13651119D01*
X13526309Y-13622548D01*
X13535833Y-13603500D01*
X13554881Y-13574928D01*
X13564405Y-13565405D01*
X13726309Y-13660643D02*
X13726309Y-13793976D01*
X13678690Y-13584452D02*
X13631071Y-13727309D01*
X13754881Y-13727309D01*
X13983452Y-13793976D02*
X13983452Y-13593976D01*
X14069167Y-13793976D02*
X14069167Y-13689214D01*
X14059643Y-13670167D01*
X14040595Y-13660643D01*
X14012024Y-13660643D01*
X13992976Y-13670167D01*
X13983452Y-13679690D01*
X14192976Y-13793976D02*
X14173928Y-13784452D01*
X14164405Y-13774928D01*
X14154881Y-13755881D01*
X14154881Y-13698738D01*
X14164405Y-13679690D01*
X14173928Y-13670167D01*
X14192976Y-13660643D01*
X14221548Y-13660643D01*
X14240595Y-13670167D01*
X14250119Y-13679690D01*
X14259643Y-13698738D01*
X14259643Y-13755881D01*
X14250119Y-13774928D01*
X14240595Y-13784452D01*
X14221548Y-13793976D01*
X14192976Y-13793976D01*
X14373928Y-13793976D02*
X14354881Y-13784452D01*
X14345357Y-13765405D01*
X14345357Y-13593976D01*
X14526309Y-13784452D02*
X14507262Y-13793976D01*
X14469167Y-13793976D01*
X14450119Y-13784452D01*
X14440595Y-13765405D01*
X14440595Y-13689214D01*
X14450119Y-13670167D01*
X14469167Y-13660643D01*
X14507262Y-13660643D01*
X14526309Y-13670167D01*
X14535833Y-13689214D01*
X14535833Y-13708262D01*
X14440595Y-13727309D01*
X14612024Y-13784452D02*
X14631071Y-13793976D01*
X14669167Y-13793976D01*
X14688214Y-13784452D01*
X14697738Y-13765405D01*
X14697738Y-13755881D01*
X14688214Y-13736833D01*
X14669167Y-13727309D01*
X14640595Y-13727309D01*
X14621548Y-13717786D01*
X14612024Y-13698738D01*
X14612024Y-13689214D01*
X14621548Y-13670167D01*
X14640595Y-13660643D01*
X14669167Y-13660643D01*
X14688214Y-13670167D01*
X14764405Y-13870167D02*
X14773928Y-13860643D01*
X14792976Y-13832071D01*
X14802500Y-13813024D01*
X14812024Y-13784452D01*
X14821548Y-13736833D01*
X14821548Y-13698738D01*
X14812024Y-13651119D01*
X14802500Y-13622548D01*
X14792976Y-13603500D01*
X14773928Y-13574928D01*
X14764405Y-13565405D01*
D18*
X9872500Y-13907500D02*
X9992500Y-14027500D01*
X9992500Y-13907500D02*
X9872500Y-14027500D01*
X9992500Y-13967500D02*
G75*
G03*
X9992500Y-13967500I-60000J0D01*
G01*
D12*
X10354881Y-14057976D02*
X10240595Y-14057976D01*
X10297738Y-14057976D02*
X10297738Y-13857976D01*
X10278690Y-13886548D01*
X10259643Y-13905595D01*
X10240595Y-13915119D01*
X10440595Y-14038928D02*
X10450119Y-14048452D01*
X10440595Y-14057976D01*
X10431071Y-14048452D01*
X10440595Y-14038928D01*
X10440595Y-14057976D01*
X10526310Y-13877024D02*
X10535833Y-13867500D01*
X10554881Y-13857976D01*
X10602500Y-13857976D01*
X10621548Y-13867500D01*
X10631071Y-13877024D01*
X10640595Y-13896071D01*
X10640595Y-13915119D01*
X10631071Y-13943690D01*
X10516786Y-14057976D01*
X10640595Y-14057976D01*
X10764405Y-13857976D02*
X10783452Y-13857976D01*
X10802500Y-13867500D01*
X10812024Y-13877024D01*
X10821548Y-13896071D01*
X10831071Y-13934167D01*
X10831071Y-13981786D01*
X10821548Y-14019881D01*
X10812024Y-14038928D01*
X10802500Y-14048452D01*
X10783452Y-14057976D01*
X10764405Y-14057976D01*
X10745357Y-14048452D01*
X10735833Y-14038928D01*
X10726310Y-14019881D01*
X10716786Y-13981786D01*
X10716786Y-13934167D01*
X10726310Y-13896071D01*
X10735833Y-13877024D01*
X10745357Y-13867500D01*
X10764405Y-13857976D01*
X10954881Y-13857976D02*
X10973929Y-13857976D01*
X10992976Y-13867500D01*
X11002500Y-13877024D01*
X11012024Y-13896071D01*
X11021548Y-13934167D01*
X11021548Y-13981786D01*
X11012024Y-14019881D01*
X11002500Y-14038928D01*
X10992976Y-14048452D01*
X10973929Y-14057976D01*
X10954881Y-14057976D01*
X10935833Y-14048452D01*
X10926310Y-14038928D01*
X10916786Y-14019881D01*
X10907262Y-13981786D01*
X10907262Y-13934167D01*
X10916786Y-13896071D01*
X10926310Y-13877024D01*
X10935833Y-13867500D01*
X10954881Y-13857976D01*
X11107262Y-14057976D02*
X11107262Y-13924643D01*
X11107262Y-13943690D02*
X11116786Y-13934167D01*
X11135833Y-13924643D01*
X11164405Y-13924643D01*
X11183452Y-13934167D01*
X11192976Y-13953214D01*
X11192976Y-14057976D01*
X11192976Y-13953214D02*
X11202500Y-13934167D01*
X11221548Y-13924643D01*
X11250119Y-13924643D01*
X11269167Y-13934167D01*
X11278690Y-13953214D01*
X11278690Y-14057976D01*
X11373928Y-14057976D02*
X11373928Y-13924643D01*
X11373928Y-13943690D02*
X11383452Y-13934167D01*
X11402500Y-13924643D01*
X11431071Y-13924643D01*
X11450119Y-13934167D01*
X11459643Y-13953214D01*
X11459643Y-14057976D01*
X11459643Y-13953214D02*
X11469167Y-13934167D01*
X11488214Y-13924643D01*
X11516786Y-13924643D01*
X11535833Y-13934167D01*
X11545357Y-13953214D01*
X11545357Y-14057976D01*
X11935833Y-13848452D02*
X11764405Y-14105595D01*
X12192976Y-13857976D02*
X12212024Y-13857976D01*
X12231071Y-13867500D01*
X12240595Y-13877024D01*
X12250119Y-13896071D01*
X12259643Y-13934167D01*
X12259643Y-13981786D01*
X12250119Y-14019881D01*
X12240595Y-14038928D01*
X12231071Y-14048452D01*
X12212024Y-14057976D01*
X12192976Y-14057976D01*
X12173928Y-14048452D01*
X12164405Y-14038928D01*
X12154881Y-14019881D01*
X12145357Y-13981786D01*
X12145357Y-13934167D01*
X12154881Y-13896071D01*
X12164405Y-13877024D01*
X12173928Y-13867500D01*
X12192976Y-13857976D01*
X12345357Y-14038928D02*
X12354881Y-14048452D01*
X12345357Y-14057976D01*
X12335833Y-14048452D01*
X12345357Y-14038928D01*
X12345357Y-14057976D01*
X12478690Y-13857976D02*
X12497738Y-13857976D01*
X12516786Y-13867500D01*
X12526309Y-13877024D01*
X12535833Y-13896071D01*
X12545357Y-13934167D01*
X12545357Y-13981786D01*
X12535833Y-14019881D01*
X12526309Y-14038928D01*
X12516786Y-14048452D01*
X12497738Y-14057976D01*
X12478690Y-14057976D01*
X12459643Y-14048452D01*
X12450119Y-14038928D01*
X12440595Y-14019881D01*
X12431071Y-13981786D01*
X12431071Y-13934167D01*
X12440595Y-13896071D01*
X12450119Y-13877024D01*
X12459643Y-13867500D01*
X12478690Y-13857976D01*
X12716786Y-13924643D02*
X12716786Y-14057976D01*
X12669167Y-13848452D02*
X12621548Y-13991309D01*
X12745357Y-13991309D01*
X12802500Y-13857976D02*
X12935833Y-13857976D01*
X12850119Y-14057976D01*
X13002500Y-13877024D02*
X13012024Y-13867500D01*
X13031071Y-13857976D01*
X13078690Y-13857976D01*
X13097738Y-13867500D01*
X13107262Y-13877024D01*
X13116786Y-13896071D01*
X13116786Y-13915119D01*
X13107262Y-13943690D01*
X12992976Y-14057976D01*
X13116786Y-14057976D01*
X13192976Y-13857976D02*
X13192976Y-13896071D01*
X13269167Y-13857976D02*
X13269167Y-13896071D01*
X13564405Y-14134167D02*
X13554881Y-14124643D01*
X13535833Y-14096071D01*
X13526309Y-14077024D01*
X13516786Y-14048452D01*
X13507262Y-14000833D01*
X13507262Y-13962738D01*
X13516786Y-13915119D01*
X13526309Y-13886548D01*
X13535833Y-13867500D01*
X13554881Y-13838928D01*
X13564405Y-13829405D01*
X13726309Y-13924643D02*
X13726309Y-14057976D01*
X13678690Y-13848452D02*
X13631071Y-13991309D01*
X13754881Y-13991309D01*
X13983452Y-14057976D02*
X13983452Y-13857976D01*
X14069167Y-14057976D02*
X14069167Y-13953214D01*
X14059643Y-13934167D01*
X14040595Y-13924643D01*
X14012024Y-13924643D01*
X13992976Y-13934167D01*
X13983452Y-13943690D01*
X14192976Y-14057976D02*
X14173928Y-14048452D01*
X14164405Y-14038928D01*
X14154881Y-14019881D01*
X14154881Y-13962738D01*
X14164405Y-13943690D01*
X14173928Y-13934167D01*
X14192976Y-13924643D01*
X14221548Y-13924643D01*
X14240595Y-13934167D01*
X14250119Y-13943690D01*
X14259643Y-13962738D01*
X14259643Y-14019881D01*
X14250119Y-14038928D01*
X14240595Y-14048452D01*
X14221548Y-14057976D01*
X14192976Y-14057976D01*
X14373928Y-14057976D02*
X14354881Y-14048452D01*
X14345357Y-14029405D01*
X14345357Y-13857976D01*
X14526309Y-14048452D02*
X14507262Y-14057976D01*
X14469167Y-14057976D01*
X14450119Y-14048452D01*
X14440595Y-14029405D01*
X14440595Y-13953214D01*
X14450119Y-13934167D01*
X14469167Y-13924643D01*
X14507262Y-13924643D01*
X14526309Y-13934167D01*
X14535833Y-13953214D01*
X14535833Y-13972262D01*
X14440595Y-13991309D01*
X14612024Y-14048452D02*
X14631071Y-14057976D01*
X14669167Y-14057976D01*
X14688214Y-14048452D01*
X14697738Y-14029405D01*
X14697738Y-14019881D01*
X14688214Y-14000833D01*
X14669167Y-13991309D01*
X14640595Y-13991309D01*
X14621548Y-13981786D01*
X14612024Y-13962738D01*
X14612024Y-13953214D01*
X14621548Y-13934167D01*
X14640595Y-13924643D01*
X14669167Y-13924643D01*
X14688214Y-13934167D01*
X14764405Y-14134167D02*
X14773928Y-14124643D01*
X14792976Y-14096071D01*
X14802500Y-14077024D01*
X14812024Y-14048452D01*
X14821548Y-14000833D01*
X14821548Y-13962738D01*
X14812024Y-13915119D01*
X14802500Y-13886548D01*
X14792976Y-13867500D01*
X14773928Y-13838928D01*
X14764405Y-13829405D01*
D19*
X9862500Y-14166500D02*
X9992500Y-14296500D01*
X9992500Y-14166500D02*
X9862500Y-14296500D01*
X9927500Y-14166500D02*
X9927500Y-14296500D01*
X9862500Y-14231500D02*
X9992500Y-14231500D01*
D12*
X10354881Y-14321976D02*
X10240595Y-14321976D01*
X10297738Y-14321976D02*
X10297738Y-14121976D01*
X10278690Y-14150548D01*
X10259643Y-14169595D01*
X10240595Y-14179119D01*
X10440595Y-14302928D02*
X10450119Y-14312452D01*
X10440595Y-14321976D01*
X10431071Y-14312452D01*
X10440595Y-14302928D01*
X10440595Y-14321976D01*
X10516786Y-14121976D02*
X10640595Y-14121976D01*
X10573929Y-14198167D01*
X10602500Y-14198167D01*
X10621548Y-14207690D01*
X10631071Y-14217214D01*
X10640595Y-14236262D01*
X10640595Y-14283881D01*
X10631071Y-14302928D01*
X10621548Y-14312452D01*
X10602500Y-14321976D01*
X10545357Y-14321976D01*
X10526310Y-14312452D01*
X10516786Y-14302928D01*
X10764405Y-14121976D02*
X10783452Y-14121976D01*
X10802500Y-14131500D01*
X10812024Y-14141024D01*
X10821548Y-14160071D01*
X10831071Y-14198167D01*
X10831071Y-14245786D01*
X10821548Y-14283881D01*
X10812024Y-14302928D01*
X10802500Y-14312452D01*
X10783452Y-14321976D01*
X10764405Y-14321976D01*
X10745357Y-14312452D01*
X10735833Y-14302928D01*
X10726310Y-14283881D01*
X10716786Y-14245786D01*
X10716786Y-14198167D01*
X10726310Y-14160071D01*
X10735833Y-14141024D01*
X10745357Y-14131500D01*
X10764405Y-14121976D01*
X10954881Y-14121976D02*
X10973929Y-14121976D01*
X10992976Y-14131500D01*
X11002500Y-14141024D01*
X11012024Y-14160071D01*
X11021548Y-14198167D01*
X11021548Y-14245786D01*
X11012024Y-14283881D01*
X11002500Y-14302928D01*
X10992976Y-14312452D01*
X10973929Y-14321976D01*
X10954881Y-14321976D01*
X10935833Y-14312452D01*
X10926310Y-14302928D01*
X10916786Y-14283881D01*
X10907262Y-14245786D01*
X10907262Y-14198167D01*
X10916786Y-14160071D01*
X10926310Y-14141024D01*
X10935833Y-14131500D01*
X10954881Y-14121976D01*
X11107262Y-14321976D02*
X11107262Y-14188643D01*
X11107262Y-14207690D02*
X11116786Y-14198167D01*
X11135833Y-14188643D01*
X11164405Y-14188643D01*
X11183452Y-14198167D01*
X11192976Y-14217214D01*
X11192976Y-14321976D01*
X11192976Y-14217214D02*
X11202500Y-14198167D01*
X11221548Y-14188643D01*
X11250119Y-14188643D01*
X11269167Y-14198167D01*
X11278690Y-14217214D01*
X11278690Y-14321976D01*
X11373928Y-14321976D02*
X11373928Y-14188643D01*
X11373928Y-14207690D02*
X11383452Y-14198167D01*
X11402500Y-14188643D01*
X11431071Y-14188643D01*
X11450119Y-14198167D01*
X11459643Y-14217214D01*
X11459643Y-14321976D01*
X11459643Y-14217214D02*
X11469167Y-14198167D01*
X11488214Y-14188643D01*
X11516786Y-14188643D01*
X11535833Y-14198167D01*
X11545357Y-14217214D01*
X11545357Y-14321976D01*
X11935833Y-14112452D02*
X11764405Y-14369595D01*
X12192976Y-14121976D02*
X12212024Y-14121976D01*
X12231071Y-14131500D01*
X12240595Y-14141024D01*
X12250119Y-14160071D01*
X12259643Y-14198167D01*
X12259643Y-14245786D01*
X12250119Y-14283881D01*
X12240595Y-14302928D01*
X12231071Y-14312452D01*
X12212024Y-14321976D01*
X12192976Y-14321976D01*
X12173928Y-14312452D01*
X12164405Y-14302928D01*
X12154881Y-14283881D01*
X12145357Y-14245786D01*
X12145357Y-14198167D01*
X12154881Y-14160071D01*
X12164405Y-14141024D01*
X12173928Y-14131500D01*
X12192976Y-14121976D01*
X12345357Y-14302928D02*
X12354881Y-14312452D01*
X12345357Y-14321976D01*
X12335833Y-14312452D01*
X12345357Y-14302928D01*
X12345357Y-14321976D01*
X12478690Y-14121976D02*
X12497738Y-14121976D01*
X12516786Y-14131500D01*
X12526309Y-14141024D01*
X12535833Y-14160071D01*
X12545357Y-14198167D01*
X12545357Y-14245786D01*
X12535833Y-14283881D01*
X12526309Y-14302928D01*
X12516786Y-14312452D01*
X12497738Y-14321976D01*
X12478690Y-14321976D01*
X12459643Y-14312452D01*
X12450119Y-14302928D01*
X12440595Y-14283881D01*
X12431071Y-14245786D01*
X12431071Y-14198167D01*
X12440595Y-14160071D01*
X12450119Y-14141024D01*
X12459643Y-14131500D01*
X12478690Y-14121976D01*
X12726309Y-14121976D02*
X12631071Y-14121976D01*
X12621548Y-14217214D01*
X12631071Y-14207690D01*
X12650119Y-14198167D01*
X12697738Y-14198167D01*
X12716786Y-14207690D01*
X12726309Y-14217214D01*
X12735833Y-14236262D01*
X12735833Y-14283881D01*
X12726309Y-14302928D01*
X12716786Y-14312452D01*
X12697738Y-14321976D01*
X12650119Y-14321976D01*
X12631071Y-14312452D01*
X12621548Y-14302928D01*
X12926309Y-14321976D02*
X12812024Y-14321976D01*
X12869167Y-14321976D02*
X12869167Y-14121976D01*
X12850119Y-14150548D01*
X12831071Y-14169595D01*
X12812024Y-14179119D01*
X13002500Y-14141024D02*
X13012024Y-14131500D01*
X13031071Y-14121976D01*
X13078690Y-14121976D01*
X13097738Y-14131500D01*
X13107262Y-14141024D01*
X13116786Y-14160071D01*
X13116786Y-14179119D01*
X13107262Y-14207690D01*
X12992976Y-14321976D01*
X13116786Y-14321976D01*
X13192976Y-14121976D02*
X13192976Y-14160071D01*
X13269167Y-14121976D02*
X13269167Y-14160071D01*
X13564405Y-14398167D02*
X13554881Y-14388643D01*
X13535833Y-14360071D01*
X13526309Y-14341024D01*
X13516786Y-14312452D01*
X13507262Y-14264833D01*
X13507262Y-14226738D01*
X13516786Y-14179119D01*
X13526309Y-14150548D01*
X13535833Y-14131500D01*
X13554881Y-14102928D01*
X13564405Y-14093405D01*
X13631071Y-14141024D02*
X13640595Y-14131500D01*
X13659643Y-14121976D01*
X13707262Y-14121976D01*
X13726309Y-14131500D01*
X13735833Y-14141024D01*
X13745357Y-14160071D01*
X13745357Y-14179119D01*
X13735833Y-14207690D01*
X13621548Y-14321976D01*
X13745357Y-14321976D01*
X13983452Y-14321976D02*
X13983452Y-14121976D01*
X14069167Y-14321976D02*
X14069167Y-14217214D01*
X14059643Y-14198167D01*
X14040595Y-14188643D01*
X14012024Y-14188643D01*
X13992976Y-14198167D01*
X13983452Y-14207690D01*
X14192976Y-14321976D02*
X14173928Y-14312452D01*
X14164405Y-14302928D01*
X14154881Y-14283881D01*
X14154881Y-14226738D01*
X14164405Y-14207690D01*
X14173928Y-14198167D01*
X14192976Y-14188643D01*
X14221548Y-14188643D01*
X14240595Y-14198167D01*
X14250119Y-14207690D01*
X14259643Y-14226738D01*
X14259643Y-14283881D01*
X14250119Y-14302928D01*
X14240595Y-14312452D01*
X14221548Y-14321976D01*
X14192976Y-14321976D01*
X14373928Y-14321976D02*
X14354881Y-14312452D01*
X14345357Y-14293405D01*
X14345357Y-14121976D01*
X14526309Y-14312452D02*
X14507262Y-14321976D01*
X14469167Y-14321976D01*
X14450119Y-14312452D01*
X14440595Y-14293405D01*
X14440595Y-14217214D01*
X14450119Y-14198167D01*
X14469167Y-14188643D01*
X14507262Y-14188643D01*
X14526309Y-14198167D01*
X14535833Y-14217214D01*
X14535833Y-14236262D01*
X14440595Y-14255309D01*
X14612024Y-14312452D02*
X14631071Y-14321976D01*
X14669167Y-14321976D01*
X14688214Y-14312452D01*
X14697738Y-14293405D01*
X14697738Y-14283881D01*
X14688214Y-14264833D01*
X14669167Y-14255309D01*
X14640595Y-14255309D01*
X14621548Y-14245786D01*
X14612024Y-14226738D01*
X14612024Y-14217214D01*
X14621548Y-14198167D01*
X14640595Y-14188643D01*
X14669167Y-14188643D01*
X14688214Y-14198167D01*
X14764405Y-14398167D02*
X14773928Y-14388643D01*
X14792976Y-14360071D01*
X14802500Y-14341024D01*
X14812024Y-14312452D01*
X14821548Y-14264833D01*
X14821548Y-14226738D01*
X14812024Y-14179119D01*
X14802500Y-14150548D01*
X14792976Y-14131500D01*
X14773928Y-14102928D01*
X14764405Y-14093405D01*
X9792500Y-14395500D02*
X9992500Y-14595500D01*
X9992500Y-14395500D02*
X9792500Y-14595500D01*
X9963211Y-14566211D02*
X9963211Y-14424789D01*
X9821789Y-14424789D01*
X9821789Y-14566211D01*
X9963211Y-14566211D01*
X10240595Y-14405024D02*
X10250119Y-14395500D01*
X10269167Y-14385976D01*
X10316786Y-14385976D01*
X10335833Y-14395500D01*
X10345357Y-14405024D01*
X10354881Y-14424071D01*
X10354881Y-14443119D01*
X10345357Y-14471690D01*
X10231071Y-14585976D01*
X10354881Y-14585976D01*
X10440595Y-14566928D02*
X10450119Y-14576452D01*
X10440595Y-14585976D01*
X10431071Y-14576452D01*
X10440595Y-14566928D01*
X10440595Y-14585976D01*
X10526310Y-14405024D02*
X10535833Y-14395500D01*
X10554881Y-14385976D01*
X10602500Y-14385976D01*
X10621548Y-14395500D01*
X10631071Y-14405024D01*
X10640595Y-14424071D01*
X10640595Y-14443119D01*
X10631071Y-14471690D01*
X10516786Y-14585976D01*
X10640595Y-14585976D01*
X10764405Y-14385976D02*
X10783452Y-14385976D01*
X10802500Y-14395500D01*
X10812024Y-14405024D01*
X10821548Y-14424071D01*
X10831071Y-14462167D01*
X10831071Y-14509786D01*
X10821548Y-14547881D01*
X10812024Y-14566928D01*
X10802500Y-14576452D01*
X10783452Y-14585976D01*
X10764405Y-14585976D01*
X10745357Y-14576452D01*
X10735833Y-14566928D01*
X10726310Y-14547881D01*
X10716786Y-14509786D01*
X10716786Y-14462167D01*
X10726310Y-14424071D01*
X10735833Y-14405024D01*
X10745357Y-14395500D01*
X10764405Y-14385976D01*
X10954881Y-14385976D02*
X10973929Y-14385976D01*
X10992976Y-14395500D01*
X11002500Y-14405024D01*
X11012024Y-14424071D01*
X11021548Y-14462167D01*
X11021548Y-14509786D01*
X11012024Y-14547881D01*
X11002500Y-14566928D01*
X10992976Y-14576452D01*
X10973929Y-14585976D01*
X10954881Y-14585976D01*
X10935833Y-14576452D01*
X10926310Y-14566928D01*
X10916786Y-14547881D01*
X10907262Y-14509786D01*
X10907262Y-14462167D01*
X10916786Y-14424071D01*
X10926310Y-14405024D01*
X10935833Y-14395500D01*
X10954881Y-14385976D01*
X11107262Y-14585976D02*
X11107262Y-14452643D01*
X11107262Y-14471690D02*
X11116786Y-14462167D01*
X11135833Y-14452643D01*
X11164405Y-14452643D01*
X11183452Y-14462167D01*
X11192976Y-14481214D01*
X11192976Y-14585976D01*
X11192976Y-14481214D02*
X11202500Y-14462167D01*
X11221548Y-14452643D01*
X11250119Y-14452643D01*
X11269167Y-14462167D01*
X11278690Y-14481214D01*
X11278690Y-14585976D01*
X11373928Y-14585976D02*
X11373928Y-14452643D01*
X11373928Y-14471690D02*
X11383452Y-14462167D01*
X11402500Y-14452643D01*
X11431071Y-14452643D01*
X11450119Y-14462167D01*
X11459643Y-14481214D01*
X11459643Y-14585976D01*
X11459643Y-14481214D02*
X11469167Y-14462167D01*
X11488214Y-14452643D01*
X11516786Y-14452643D01*
X11535833Y-14462167D01*
X11545357Y-14481214D01*
X11545357Y-14585976D01*
X11935833Y-14376452D02*
X11764405Y-14633595D01*
X12192976Y-14385976D02*
X12212024Y-14385976D01*
X12231071Y-14395500D01*
X12240595Y-14405024D01*
X12250119Y-14424071D01*
X12259643Y-14462167D01*
X12259643Y-14509786D01*
X12250119Y-14547881D01*
X12240595Y-14566928D01*
X12231071Y-14576452D01*
X12212024Y-14585976D01*
X12192976Y-14585976D01*
X12173928Y-14576452D01*
X12164405Y-14566928D01*
X12154881Y-14547881D01*
X12145357Y-14509786D01*
X12145357Y-14462167D01*
X12154881Y-14424071D01*
X12164405Y-14405024D01*
X12173928Y-14395500D01*
X12192976Y-14385976D01*
X12345357Y-14566928D02*
X12354881Y-14576452D01*
X12345357Y-14585976D01*
X12335833Y-14576452D01*
X12345357Y-14566928D01*
X12345357Y-14585976D01*
X12478690Y-14385976D02*
X12497738Y-14385976D01*
X12516786Y-14395500D01*
X12526309Y-14405024D01*
X12535833Y-14424071D01*
X12545357Y-14462167D01*
X12545357Y-14509786D01*
X12535833Y-14547881D01*
X12526309Y-14566928D01*
X12516786Y-14576452D01*
X12497738Y-14585976D01*
X12478690Y-14585976D01*
X12459643Y-14576452D01*
X12450119Y-14566928D01*
X12440595Y-14547881D01*
X12431071Y-14509786D01*
X12431071Y-14462167D01*
X12440595Y-14424071D01*
X12450119Y-14405024D01*
X12459643Y-14395500D01*
X12478690Y-14385976D01*
X12659643Y-14471690D02*
X12640595Y-14462167D01*
X12631071Y-14452643D01*
X12621548Y-14433595D01*
X12621548Y-14424071D01*
X12631071Y-14405024D01*
X12640595Y-14395500D01*
X12659643Y-14385976D01*
X12697738Y-14385976D01*
X12716786Y-14395500D01*
X12726309Y-14405024D01*
X12735833Y-14424071D01*
X12735833Y-14433595D01*
X12726309Y-14452643D01*
X12716786Y-14462167D01*
X12697738Y-14471690D01*
X12659643Y-14471690D01*
X12640595Y-14481214D01*
X12631071Y-14490738D01*
X12621548Y-14509786D01*
X12621548Y-14547881D01*
X12631071Y-14566928D01*
X12640595Y-14576452D01*
X12659643Y-14585976D01*
X12697738Y-14585976D01*
X12716786Y-14576452D01*
X12726309Y-14566928D01*
X12735833Y-14547881D01*
X12735833Y-14509786D01*
X12726309Y-14490738D01*
X12716786Y-14481214D01*
X12697738Y-14471690D01*
X12907262Y-14385976D02*
X12869167Y-14385976D01*
X12850119Y-14395500D01*
X12840595Y-14405024D01*
X12821548Y-14433595D01*
X12812024Y-14471690D01*
X12812024Y-14547881D01*
X12821548Y-14566928D01*
X12831071Y-14576452D01*
X12850119Y-14585976D01*
X12888214Y-14585976D01*
X12907262Y-14576452D01*
X12916786Y-14566928D01*
X12926309Y-14547881D01*
X12926309Y-14500262D01*
X12916786Y-14481214D01*
X12907262Y-14471690D01*
X12888214Y-14462167D01*
X12850119Y-14462167D01*
X12831071Y-14471690D01*
X12821548Y-14481214D01*
X12812024Y-14500262D01*
X13097738Y-14385976D02*
X13059643Y-14385976D01*
X13040595Y-14395500D01*
X13031071Y-14405024D01*
X13012024Y-14433595D01*
X13002500Y-14471690D01*
X13002500Y-14547881D01*
X13012024Y-14566928D01*
X13021548Y-14576452D01*
X13040595Y-14585976D01*
X13078690Y-14585976D01*
X13097738Y-14576452D01*
X13107262Y-14566928D01*
X13116786Y-14547881D01*
X13116786Y-14500262D01*
X13107262Y-14481214D01*
X13097738Y-14471690D01*
X13078690Y-14462167D01*
X13040595Y-14462167D01*
X13021548Y-14471690D01*
X13012024Y-14481214D01*
X13002500Y-14500262D01*
X13192976Y-14385976D02*
X13192976Y-14424071D01*
X13269167Y-14385976D02*
X13269167Y-14424071D01*
X13564405Y-14662167D02*
X13554881Y-14652643D01*
X13535833Y-14624071D01*
X13526309Y-14605024D01*
X13516786Y-14576452D01*
X13507262Y-14528833D01*
X13507262Y-14490738D01*
X13516786Y-14443119D01*
X13526309Y-14414548D01*
X13535833Y-14395500D01*
X13554881Y-14366928D01*
X13564405Y-14357405D01*
X13631071Y-14405024D02*
X13640595Y-14395500D01*
X13659643Y-14385976D01*
X13707262Y-14385976D01*
X13726309Y-14395500D01*
X13735833Y-14405024D01*
X13745357Y-14424071D01*
X13745357Y-14443119D01*
X13735833Y-14471690D01*
X13621548Y-14585976D01*
X13745357Y-14585976D01*
X13983452Y-14585976D02*
X13983452Y-14385976D01*
X14069167Y-14585976D02*
X14069167Y-14481214D01*
X14059643Y-14462167D01*
X14040595Y-14452643D01*
X14012024Y-14452643D01*
X13992976Y-14462167D01*
X13983452Y-14471690D01*
X14192976Y-14585976D02*
X14173928Y-14576452D01*
X14164405Y-14566928D01*
X14154881Y-14547881D01*
X14154881Y-14490738D01*
X14164405Y-14471690D01*
X14173928Y-14462167D01*
X14192976Y-14452643D01*
X14221548Y-14452643D01*
X14240595Y-14462167D01*
X14250119Y-14471690D01*
X14259643Y-14490738D01*
X14259643Y-14547881D01*
X14250119Y-14566928D01*
X14240595Y-14576452D01*
X14221548Y-14585976D01*
X14192976Y-14585976D01*
X14373928Y-14585976D02*
X14354881Y-14576452D01*
X14345357Y-14557405D01*
X14345357Y-14385976D01*
X14526309Y-14576452D02*
X14507262Y-14585976D01*
X14469167Y-14585976D01*
X14450119Y-14576452D01*
X14440595Y-14557405D01*
X14440595Y-14481214D01*
X14450119Y-14462167D01*
X14469167Y-14452643D01*
X14507262Y-14452643D01*
X14526309Y-14462167D01*
X14535833Y-14481214D01*
X14535833Y-14500262D01*
X14440595Y-14519309D01*
X14612024Y-14576452D02*
X14631071Y-14585976D01*
X14669167Y-14585976D01*
X14688214Y-14576452D01*
X14697738Y-14557405D01*
X14697738Y-14547881D01*
X14688214Y-14528833D01*
X14669167Y-14519309D01*
X14640595Y-14519309D01*
X14621548Y-14509786D01*
X14612024Y-14490738D01*
X14612024Y-14481214D01*
X14621548Y-14462167D01*
X14640595Y-14452643D01*
X14669167Y-14452643D01*
X14688214Y-14462167D01*
X14764405Y-14662167D02*
X14773928Y-14652643D01*
X14792976Y-14624071D01*
X14802500Y-14605024D01*
X14812024Y-14576452D01*
X14821548Y-14528833D01*
X14821548Y-14490738D01*
X14812024Y-14443119D01*
X14802500Y-14414548D01*
X14792976Y-14395500D01*
X14773928Y-14366928D01*
X14764405Y-14357405D01*
M02*
