M48
; DRILL file {KiCad (6.0.4)} date Wed Apr 20 16:37:55 2022
; FORMAT={-:-/ absolute / metric / decimal}
; #@! TF.CreationDate,2022-04-20T16:37:55+09:00
; #@! TF.GenerationSoftware,Kicad,Pcbnew,(6.0.4)
; #@! TF.FileFunction,Plated,1,2,PTH
FMAT,2
METRIC
; #@! TA.AperFunction,Plated,PTH,ComponentDrill
T1C0.700
; #@! TA.AperFunction,Plated,PTH,ComponentDrill
T2C0.750
; #@! TA.AperFunction,Plated,PTH,ComponentDrill
T3C0.800
; #@! TA.AperFunction,Plated,PTH,ComponentDrill
T4C1.000
; #@! TA.AperFunction,Plated,PTH,ComponentDrill
T5C1.100
; #@! TA.AperFunction,Plated,PTH,ComponentDrill
T6C1.200
; #@! TA.AperFunction,Plated,PTH,ComponentDrill
T7C1.300
; #@! TA.AperFunction,Plated,PTH,ComponentDrill
T8C2.200
%
G90
G05
T1
X123.0Y-107.01
X123.0Y-109.51
X125.0Y-107.01
X125.0Y-109.51
X127.0Y-107.01
X127.0Y-109.51
X129.0Y-107.01
X129.0Y-109.51
X131.0Y-107.01
X131.0Y-109.51
X133.0Y-107.01
X133.0Y-109.51
T2
X141.685Y-111.0
X149.305Y-111.0
X160.0Y-105.36
X161.27Y-104.09
X162.54Y-105.36
X168.0Y-105.36
X169.27Y-104.09
X170.54Y-105.36
T3
X120.772Y-94.63
X120.772Y-102.25
X123.312Y-94.63
X123.312Y-102.25
X125.852Y-94.63
X125.852Y-102.25
X128.392Y-94.63
X128.392Y-102.25
X129.224Y-65.126
X129.286Y-61.334
X129.286Y-68.834
X130.932Y-94.63
X130.932Y-102.25
X133.472Y-94.63
X133.472Y-102.25
X136.012Y-94.63
X136.012Y-102.25
X136.844Y-65.126
X136.906Y-61.334
X136.906Y-68.834
X138.552Y-94.63
X138.552Y-102.25
X141.0Y-64.5
X141.0Y-69.5
X141.092Y-94.63
X141.092Y-102.25
X143.632Y-94.63
X143.632Y-102.25
X145.2Y-61.7
X145.2Y-64.24
X145.2Y-66.78
X145.2Y-69.32
X146.172Y-94.63
X146.172Y-102.25
X148.712Y-94.63
X148.712Y-102.25
X152.82Y-61.7
X152.82Y-64.24
X152.82Y-66.78
X152.82Y-69.32
X153.19Y-111.0
X153.19Y-116.0
X155.423Y-66.867
X155.423Y-71.867
X156.0Y-98.19
X156.0Y-105.81
X160.81Y-111.0
X160.81Y-116.0
X165.38Y-111.0
X165.39Y-116.0
X173.0Y-111.0
X173.01Y-116.0
X177.5Y-87.0
X180.0Y-60.955
X180.0Y-62.955
X182.5Y-87.0
T4
X117.0Y-81.76
X117.0Y-97.0
X119.54Y-81.76
X119.54Y-97.0
X122.08Y-81.76
X122.08Y-97.0
X122.533Y-65.834
X122.533Y-68.374
X124.62Y-81.76
X124.62Y-97.0
X127.16Y-81.76
X127.16Y-97.0
X129.7Y-81.76
X129.7Y-97.0
X132.24Y-81.76
X132.24Y-97.0
X134.78Y-81.76
X134.78Y-97.0
X137.32Y-81.76
X137.32Y-97.0
X139.86Y-81.76
X139.86Y-97.0
X142.4Y-81.76
X142.4Y-97.0
X144.94Y-81.76
X144.94Y-97.0
X169.0Y-92.0
X177.0Y-92.0
X177.0Y-104.0
X180.0Y-76.368
X180.0Y-81.368
T5
X140.42Y-106.0
X143.92Y-75.0
X150.58Y-106.0
X154.08Y-75.0
T6
X158.38Y-62.0
X158.38Y-69.0
X173.62Y-62.0
X173.62Y-69.0
T7
X164.0Y-79.0
X169.0Y-79.0
T8
X120.445Y-108.26
X135.555Y-108.26
T4
G00X186.188Y-66.608
M15
G01X186.188Y-64.307
M16
G05
G00X189.987Y-60.758
M15
G01X187.987Y-60.758
M16
G05
G00X192.188Y-66.457
M15
G01X192.188Y-64.457
M16
G05
T0
M30
